<svg width="32" height="30" viewBox="0 0 32 30" fill="none" xmlns="http://www.w3.org/2000/svg">
<path fill-rule="evenodd" clip-rule="evenodd" d="M16.2996 1.34323C8.46191 1.34323 2.11668 7.61204 2.11668 15.3321C2.11668 21.0006 5.53782 25.8786 10.4618 28.0728C10.977 28.3029 11.4805 28.2116 11.874 27.9185C12.0916 27.7502 12.267 27.5342 12.3865 27.2873C12.506 27.0405 12.5663 26.7695 12.5626 26.4956V25.7629L10.8061 25.5264C10.7931 25.5247 10.7801 25.5225 10.7673 25.52C9.79904 25.3323 9.14536 24.9943 8.66642 24.5071C8.26386 24.0971 8.01792 23.6061 7.80952 23.1896L7.73703 23.0443C7.54442 22.6454 7.33408 22.2551 7.10665 21.8747C6.93191 21.5996 6.79599 21.4582 6.66137 21.3695C6.31965 21.1446 5.99087 20.7628 5.99087 20.2859C5.9897 20.1487 6.01929 20.0129 6.0775 19.8884C6.13571 19.7639 6.22107 19.6538 6.32741 19.5661C6.52812 19.4083 6.77826 19.3255 7.03417 19.3322C7.32153 19.3322 7.59206 19.4196 7.81729 19.5198C8.04769 19.6227 8.2768 19.7589 8.49038 19.9003C9.01074 20.2448 9.52333 20.6523 9.95696 21.1548C10.4087 21.6767 10.7284 22.0083 11.21 22.0765C11.606 22.133 12.0099 22.1343 12.3244 22.1202C12.3682 21.8729 12.4403 21.6313 12.5393 21.4003C12.1552 21.3113 11.7762 21.2015 11.4041 21.0713C10.5576 20.7731 9.61394 20.3091 8.97967 19.606C8.28328 18.8321 7.85224 18.1419 7.61147 17.3347C7.37719 16.548 7.33835 15.6958 7.33835 14.6469C7.33835 13.0402 8.03863 11.6867 8.56417 10.9682C8.36225 10.3391 8.21714 9.69344 8.13054 9.03881C8.07318 8.62599 8.07362 8.20727 8.13183 7.79456C8.19655 7.41795 8.35835 6.95521 8.78422 6.67628C9.19455 6.40506 9.67607 6.41663 10.0514 6.48604C10.4411 6.55931 10.8462 6.71998 11.219 6.90379C11.8261 7.202 12.4293 7.60047 12.881 7.93853C13.6603 7.71101 15.0388 7.41795 16.2854 7.39095H16.3138C17.5617 7.41795 18.8781 7.71101 19.6379 7.93724C20.0909 7.60047 20.6928 7.20072 21.2986 6.90379C21.6714 6.71998 22.0753 6.55931 22.4662 6.48604C22.8416 6.41663 23.3231 6.40506 23.7347 6.67499C24.1593 6.95521 24.3224 7.41795 24.3858 7.79456C24.4518 8.18661 24.4363 8.62492 24.3858 9.03881C24.2996 9.69339 24.1549 10.3391 23.9535 10.9682C24.479 11.688 25.1793 13.0415 25.1793 14.6469C25.1793 15.6958 25.1405 16.548 24.9075 17.3334C24.6654 18.1432 24.2344 18.8321 23.538 19.606C22.9037 20.3091 21.9601 20.7731 21.1135 21.0713C20.6642 21.2281 20.205 21.3557 19.7389 21.453C19.8981 21.9312 19.955 22.3181 19.955 22.5405V26.5123C19.955 27.1164 20.2385 27.6319 20.6411 27.9327C21.032 28.227 21.5342 28.3183 22.0494 28.0946C27.02 25.9198 30.4812 21.0289 30.4812 15.3308C30.4812 7.61204 24.1386 1.34323 16.2996 1.34323ZM13.0325 23.4068C12.6959 23.4544 13.0312 23.4068 13.0312 23.4068H13.0273L13.017 23.4094L12.9794 23.4145C12.7872 23.437 12.5942 23.4528 12.4008 23.4621C11.9401 23.4859 11.4782 23.4674 11.021 23.4068C9.99708 23.2629 9.37447 22.5431 8.97191 22.0752L8.93307 22.0315C8.80145 21.8798 8.66007 21.7369 8.5098 21.6034C8.64312 21.8477 8.78163 22.1202 8.93049 22.4132L8.94343 22.4389L9.00944 22.5726C9.23597 23.0199 9.38483 23.3181 9.63206 23.5675C9.87282 23.8117 10.2482 24.0482 11.0067 24.1973L13.3289 24.5097C13.4911 24.5315 13.6398 24.611 13.7474 24.7335C13.855 24.8559 13.9142 25.013 13.914 25.1755V26.4956C13.914 27.5239 13.4286 28.4404 12.6843 28.9957C12.2935 29.2922 11.8287 29.4771 11.3398 29.5306C10.851 29.584 10.3567 29.504 9.91036 29.299C4.523 26.8992 0.766602 21.5559 0.766602 15.3321C0.766602 6.85881 7.72668 0 16.2996 0C24.8725 0 31.8326 6.85881 31.8326 15.3321C31.8326 21.588 28.0283 26.9455 22.5943 29.3247C22.1476 29.5258 21.6542 29.6025 21.167 29.5465C20.6797 29.4906 20.217 29.3042 19.8282 29.0072C19.4438 28.7134 19.1331 28.335 18.9207 27.9019C18.7082 27.4688 18.5997 26.9928 18.6037 26.511V22.5392C18.6037 22.4492 18.5402 21.9299 18.1869 21.232C18.1381 21.1352 18.1135 21.0282 18.1152 20.9199C18.1169 20.8117 18.1449 20.7055 18.1967 20.6103C18.2485 20.5151 18.3227 20.4337 18.4129 20.373C18.5031 20.3122 18.6067 20.274 18.715 20.2615C19.3786 20.1789 20.0313 20.0255 20.6618 19.8039C21.4307 19.534 22.1206 19.1638 22.5309 18.7088C23.1406 18.0326 23.4448 17.5133 23.6118 16.9516C23.7852 16.3694 23.8292 15.692 23.8292 14.6469C23.8292 13.1803 23.0526 11.9476 22.6953 11.5505C22.6142 11.4607 22.5589 11.3509 22.5352 11.2326C22.5116 11.1144 22.5203 10.9919 22.5607 10.8782C22.7908 10.2306 22.9534 9.56126 23.0461 8.88071C23.0875 8.52723 23.0901 8.23159 23.0539 8.01822C23.0457 7.94021 23.022 7.8646 22.984 7.79585C22.8948 7.78054 22.8035 7.78448 22.716 7.80742C22.496 7.84855 22.2151 7.95138 21.8967 8.1082C21.2624 8.41926 20.6022 8.87943 20.1932 9.20849C20.103 9.28116 19.9954 9.32941 19.8808 9.34856C19.7663 9.36771 19.6487 9.35709 19.5395 9.31774C18.4915 8.97731 17.4013 8.78138 16.2996 8.73546C14.9961 8.76631 13.492 9.13393 12.9781 9.31774C12.8689 9.35709 12.7513 9.36771 12.6368 9.34856C12.5223 9.32941 12.4146 9.28116 12.3244 9.20849C11.7955 8.78559 11.2247 8.41695 10.621 8.1082C10.3617 7.973 10.0859 7.87189 9.80033 7.80742C9.71331 7.78467 9.62238 7.78072 9.53368 7.79585C9.49564 7.86458 9.47187 7.9402 9.46378 8.01822C9.42754 8.23159 9.43013 8.52723 9.47155 8.88071C9.56483 9.56114 9.72747 10.2304 9.95696 10.8782C10.0385 11.1096 9.98802 11.3666 9.82234 11.5505C9.46508 11.9476 8.68843 13.1803 8.68843 14.6469C8.68843 15.6907 8.73244 16.3694 8.90589 16.9516C9.07417 17.5133 9.37706 18.0314 9.98543 18.7088C10.3971 19.1638 11.0857 19.534 11.8559 19.8039C12.486 20.0253 13.1382 20.1787 13.8014 20.2615C13.9378 20.276 14.0666 20.3315 14.1705 20.4205C14.2744 20.5094 14.3486 20.6277 14.3832 20.7596C14.4177 20.8915 14.411 21.0307 14.364 21.1587C14.317 21.2867 14.2318 21.3974 14.1198 21.4762C13.9062 21.6279 13.7651 21.9004 13.6862 22.2153C13.6454 22.3774 13.6211 22.5432 13.6137 22.7101V22.7346C13.6153 22.8975 13.5573 23.0556 13.4504 23.1792C13.3435 23.3029 13.195 23.3838 13.0325 23.4068Z" fill="#D3D3D3"/>
</svg>
