<svg width="43" height="42" viewBox="0 0 43 42" fill="none" xmlns="http://www.w3.org/2000/svg">
<path d="M15.6246 29.9014C14.8313 31.0587 13.9816 32.1763 13.0784 33.25C6.6209 33.0663 4.1709 28.875 4.1709 28.875C4.26268 22.9365 5.70178 17.0963 8.37965 11.795C10.7336 9.95353 13.6018 8.88942 16.5871 8.75002L17.4621 10.7713C18.7119 10.5978 19.9717 10.5072 21.2334 10.5C22.5007 10.5042 23.7664 10.5919 25.0221 10.7625L25.8971 8.74127C28.8855 8.88822 31.754 9.96161 34.1046 11.8125C36.7739 17.11 38.2069 22.9438 38.2959 28.875C38.2959 28.875 35.8459 33.0663 29.3884 33.25C28.4989 32.1814 27.6637 31.0687 26.8859 29.9163M32.5384 27.3788C29.1784 29.0806 25.9269 30.7825 21.2334 30.7825C16.5399 30.7825 13.2884 29.0806 9.9284 27.3788" stroke="#222222" stroke-linecap="round" stroke-linejoin="round"/>
<path d="M15.8495 25.8825C17.4683 25.8825 18.7807 24.5702 18.7807 22.9513C18.7807 21.3324 17.4683 20.02 15.8495 20.02C14.2306 20.02 12.9182 21.3324 12.9182 22.9513C12.9182 24.5702 14.2306 25.8825 15.8495 25.8825Z" stroke="#222222" stroke-linecap="round" stroke-linejoin="round"/>
<path d="M26.6173 25.8825C28.2362 25.8825 29.5485 24.5702 29.5485 22.9513C29.5485 21.3324 28.2362 20.02 26.6173 20.02C24.9984 20.02 23.686 21.3324 23.686 22.9513C23.686 24.5702 24.9984 25.8825 26.6173 25.8825Z" stroke="#222222" stroke-linecap="round" stroke-linejoin="round"/>
</svg>
