<svg width="32" height="30" viewBox="0 0 32 30" fill="none" xmlns="http://www.w3.org/2000/svg">
<path fill-rule="evenodd" clip-rule="evenodd" d="M15.533 1.34323C7.6953 1.34323 1.35008 7.61204 1.35008 15.3321C1.35008 21.0006 4.77122 25.8786 9.69518 28.0728C10.2104 28.3029 10.7139 28.2116 11.1074 27.9185C11.325 27.7502 11.5004 27.5342 11.6199 27.2873C11.7394 27.0405 11.7997 26.7695 11.796 26.4956V25.7629L10.0395 25.5264C10.0265 25.5247 10.0135 25.5225 10.0007 25.52C9.03244 25.3323 8.37876 24.9943 7.89982 24.5071C7.49726 24.0971 7.25132 23.6061 7.04292 23.1896L6.97043 23.0443C6.77782 22.6454 6.56748 22.2551 6.34005 21.8747C6.1653 21.5996 6.02939 21.4582 5.89477 21.3695C5.55305 21.1446 5.22426 20.7628 5.22426 20.2859C5.2231 20.1487 5.25269 20.0129 5.3109 19.8884C5.3691 19.7639 5.45447 19.6538 5.56081 19.5661C5.76152 19.4083 6.01165 19.3255 6.26756 19.3322C6.55492 19.3322 6.82546 19.4196 7.05069 19.5198C7.28109 19.6227 7.5102 19.7589 7.72378 19.9003C8.24414 20.2448 8.75673 20.6523 9.19036 21.1548C9.64211 21.6767 9.96183 22.0083 10.4434 22.0765C10.8394 22.133 11.2433 22.1343 11.5578 22.1202C11.6016 21.8729 11.6737 21.6313 11.7727 21.4003C11.3885 21.3113 11.0096 21.2015 10.6375 21.0713C9.79097 20.7731 8.84733 20.3091 8.21307 19.606C7.51667 18.8322 7.08563 18.1419 6.84487 17.3347C6.61058 16.548 6.57175 15.6958 6.57175 14.6469C6.57175 13.0402 7.27203 11.6867 7.79756 10.9682C7.59565 10.3391 7.45054 9.69344 7.36393 9.03881C7.30658 8.62599 7.30701 8.20727 7.36523 7.79456C7.42995 7.41795 7.59175 6.95521 8.01761 6.67628C8.42794 6.40506 8.90947 6.41663 9.28485 6.48604C9.67447 6.55931 10.0796 6.71998 10.4524 6.90379C11.0595 7.202 11.6627 7.60047 12.1144 7.93853C12.8937 7.71101 14.2722 7.41795 15.5188 7.39095H15.5472C16.7951 7.41795 18.1115 7.71101 18.8713 7.93724C19.3243 7.60047 19.9262 7.20072 20.532 6.90379C20.9048 6.71998 21.3087 6.55931 21.6996 6.48604C22.075 6.41663 22.5565 6.40506 22.9681 6.67499C23.3927 6.95521 23.5558 7.41795 23.6192 7.79456C23.6852 8.18661 23.6697 8.62492 23.6192 9.03881C23.533 9.69339 23.3883 10.3391 23.1869 10.9682C23.7124 11.688 24.4127 13.0415 24.4127 14.6469C24.4127 15.6958 24.3739 16.548 24.1409 17.3334C23.8988 18.1432 23.4678 18.8322 22.7714 19.606C22.1371 20.3091 21.1935 20.7731 20.3469 21.0713C19.8976 21.2281 19.4384 21.3557 18.9723 21.453C19.1315 21.9312 19.1884 22.3181 19.1884 22.5405V26.5123C19.1884 27.1164 19.4719 27.6319 19.8745 27.9327C20.2654 28.227 20.7676 28.3183 21.2828 28.0946C26.2534 25.9198 29.7146 21.0289 29.7146 15.3308C29.7146 7.61204 23.372 1.34323 15.533 1.34323ZM12.2659 23.4068C11.9293 23.4544 12.2646 23.4068 12.2646 23.4068H12.2607L12.2504 23.4094L12.2128 23.4145C12.0206 23.437 11.8276 23.4528 11.6342 23.4621C11.1735 23.4859 10.7116 23.4674 10.2544 23.4068C9.23048 23.2629 8.60787 22.5431 8.20531 22.0752L8.16647 22.0315C8.03485 21.8798 7.89346 21.7369 7.7432 21.6034C7.87652 21.8477 8.01503 22.1202 8.16388 22.4132L8.17683 22.4389L8.24284 22.5726C8.46937 23.0199 8.61822 23.3181 8.86546 23.5675C9.10622 23.8117 9.4816 24.0482 10.2401 24.1973L12.5623 24.5097C12.7245 24.5315 12.8732 24.611 12.9808 24.7335C13.0884 24.8559 13.1476 25.013 13.1474 25.1755V26.4956C13.1474 27.5239 12.662 28.4404 11.9177 28.9957C11.5269 29.2922 11.0621 29.4771 10.5732 29.5306C10.0844 29.584 9.59014 29.504 9.14376 29.299C3.7564 26.8992 0 21.5559 0 15.3321C0 6.8588 6.96008 0 15.533 0C24.1059 0 31.066 6.8588 31.066 15.3321C31.066 21.588 27.2617 26.9455 21.8277 29.3247C21.381 29.5258 20.8876 29.6025 20.4004 29.5465C19.9131 29.4906 19.4504 29.3042 19.0616 29.0072C18.6772 28.7134 18.3665 28.335 18.1541 27.9019C17.9416 27.4688 17.8331 26.9928 17.8371 26.511V22.5392C17.8371 22.4492 17.7736 21.9299 17.4203 21.232C17.3715 21.1352 17.3469 21.0281 17.3486 20.9199C17.3503 20.8117 17.3783 20.7055 17.4301 20.6103C17.4819 20.5151 17.5561 20.4337 17.6463 20.373C17.7365 20.3122 17.8401 20.274 17.9484 20.2615C18.612 20.1789 19.2647 20.0255 19.8952 19.8039C20.6641 19.534 21.354 19.1638 21.7643 18.7088C22.374 18.0326 22.6782 17.5133 22.8452 16.9516C23.0186 16.3694 23.0626 15.692 23.0626 14.6469C23.0626 13.1803 22.286 11.9476 21.9287 11.5505C21.8476 11.4607 21.7923 11.3509 21.7686 11.2326C21.745 11.1144 21.7537 10.9919 21.7941 10.8782C22.0242 10.2306 22.1868 9.56126 22.2795 8.88071C22.3209 8.52723 22.3235 8.23159 22.2873 8.01822C22.2791 7.94021 22.2554 7.8646 22.2174 7.79585C22.1282 7.78054 22.0369 7.78448 21.9494 7.80742C21.7294 7.84855 21.4485 7.95138 21.1301 8.1082C20.4958 8.41926 19.8356 8.87943 19.4266 9.20849C19.3364 9.28116 19.2288 9.32941 19.1142 9.34856C18.9997 9.36771 18.8821 9.35709 18.7729 9.31774C17.7249 8.97731 16.6347 8.78138 15.533 8.73546C14.2295 8.76631 12.7254 9.13393 12.2115 9.31774C12.1023 9.35709 11.9847 9.36771 11.8702 9.34856C11.7557 9.32941 11.648 9.28116 11.5578 9.20849C11.0289 8.78559 10.4581 8.41695 9.85439 8.1082C9.59514 7.973 9.31927 7.87189 9.03373 7.80742C8.9467 7.78467 8.85577 7.78072 8.76708 7.79585C8.72903 7.86458 8.70527 7.9402 8.69718 8.01822C8.66094 8.23159 8.66353 8.52723 8.70495 8.88071C8.79823 9.56114 8.96087 10.2304 9.19036 10.8782C9.2719 11.1096 9.22142 11.3666 9.05574 11.5505C8.69848 11.9476 7.92183 13.1803 7.92183 14.6469C7.92183 15.6907 7.96584 16.3694 8.13929 16.9516C8.30756 17.5133 8.61046 18.0314 9.21883 18.7088C9.63046 19.1638 10.3191 19.534 11.0893 19.8039C11.7194 20.0253 12.3716 20.1787 13.0348 20.2615C13.1712 20.276 13.3 20.3315 13.4039 20.4205C13.5078 20.5094 13.582 20.6277 13.6166 20.7596C13.6511 20.8915 13.6444 21.0307 13.5974 21.1587C13.5504 21.2867 13.4652 21.3974 13.3532 21.4762C13.1396 21.6279 12.9985 21.9004 12.9196 22.2153C12.8788 22.3774 12.8545 22.5432 12.8471 22.7101V22.7346C12.8487 22.8975 12.7907 23.0556 12.6838 23.1792C12.5769 23.3029 12.4284 23.3838 12.2659 23.4068Z" fill="#222222"/>
</svg>

