<svg width="29" height="29" viewBox="0 0 29 29" fill="none" xmlns="http://www.w3.org/2000/svg">
<path d="M15 11.5455C16.35 11.5455 17.4545 12.65 17.4545 14C17.4545 15.35 16.35 16.4545 15 16.4545C13.65 16.4545 12.5455 15.35 12.5455 14C12.5455 12.65 13.65 11.5455 15 11.5455ZM15 9.90909C12.7418 9.90909 10.9091 11.7418 10.9091 14C10.9091 16.2582 12.7418 18.0909 15 18.0909C17.2582 18.0909 19.0909 16.2582 19.0909 14C19.0909 11.7418 17.2582 9.90909 15 9.90909ZM6.81818 14.8182H8.45455C8.90455 14.8182 9.27273 14.45 9.27273 14C9.27273 13.55 8.90455 13.1818 8.45455 13.1818H6.81818C6.36818 13.1818 6 13.55 6 14C6 14.45 6.36818 14.8182 6.81818 14.8182ZM21.5455 14.8182H23.1818C23.6318 14.8182 24 14.45 24 14C24 13.55 23.6318 13.1818 23.1818 13.1818H21.5455C21.0955 13.1818 20.7273 13.55 20.7273 14C20.7273 14.45 21.0955 14.8182 21.5455 14.8182ZM14.1818 5.81818V7.45455C14.1818 7.90455 14.55 8.27273 15 8.27273C15.45 8.27273 15.8182 7.90455 15.8182 7.45455V5.81818C15.8182 5.36818 15.45 5 15 5C14.55 5 14.1818 5.36818 14.1818 5.81818ZM14.1818 20.5455V22.1818C14.1818 22.6318 14.55 23 15 23C15.45 23 15.8182 22.6318 15.8182 22.1818V20.5455C15.8182 20.0955 15.45 19.7273 15 19.7273C14.55 19.7273 14.1818 20.0955 14.1818 20.5455ZM10.0827 7.92909C10.007 7.85324 9.91713 7.79307 9.81815 7.75201C9.71917 7.71095 9.61307 7.68982 9.50591 7.68982C9.39875 7.68982 9.29265 7.71095 9.19367 7.75201C9.09469 7.79307 9.00478 7.85324 8.92909 7.92909C8.85324 8.00478 8.79307 8.09469 8.75201 8.19367C8.71095 8.29265 8.68982 8.39875 8.68982 8.50591C8.68982 8.61307 8.71095 8.71917 8.75201 8.81815C8.79307 8.91713 8.85324 9.00703 8.92909 9.08273L9.79636 9.95C10.1155 10.2691 10.6391 10.2691 10.95 9.95C11.2609 9.63091 11.2691 9.10727 10.95 8.79636L10.0827 7.92909ZM20.2036 18.05C20.1279 17.9742 20.038 17.914 19.9391 17.8729C19.8401 17.8319 19.734 17.8107 19.6268 17.8107C19.5197 17.8107 19.4136 17.8319 19.3146 17.8729C19.2156 17.914 19.1257 17.9742 19.05 18.05C18.9742 18.1257 18.914 18.2156 18.8729 18.3146C18.8319 18.4136 18.8107 18.5197 18.8107 18.6268C18.8107 18.734 18.8319 18.8401 18.8729 18.9391C18.914 19.038 18.9742 19.1279 19.05 19.2036L19.9173 20.0709C20.2364 20.39 20.76 20.39 21.0709 20.0709C21.1468 19.9952 21.2069 19.9053 21.248 19.8063C21.289 19.7074 21.3102 19.6012 21.3102 19.4941C21.3102 19.3869 21.289 19.2808 21.248 19.1819C21.2069 19.0829 21.1468 18.993 21.0709 18.9173L20.2036 18.05ZM21.0709 9.08273C21.1468 9.00703 21.2069 8.91713 21.248 8.81815C21.289 8.71917 21.3102 8.61307 21.3102 8.50591C21.3102 8.39875 21.289 8.29265 21.248 8.19367C21.2069 8.09469 21.1468 8.00478 21.0709 7.92909C20.9952 7.85324 20.9053 7.79307 20.8063 7.75201C20.7074 7.71095 20.6012 7.68982 20.4941 7.68982C20.3869 7.68982 20.2808 7.71095 20.1819 7.75201C20.0829 7.79307 19.993 7.85324 19.9173 7.92909L19.05 8.79636C18.7309 9.11545 18.7309 9.63909 19.05 9.95C19.3691 10.2609 19.8927 10.2691 20.2036 9.95L21.0709 9.08273ZM10.95 19.2036C11.0258 19.1279 11.086 19.038 11.1271 18.9391C11.1681 18.8401 11.1893 18.734 11.1893 18.6268C11.1893 18.5197 11.1681 18.4136 11.1271 18.3146C11.086 18.2156 11.0258 18.1257 10.95 18.05C10.8743 17.9742 10.7844 17.914 10.6854 17.8729C10.5864 17.8319 10.4803 17.8107 10.3732 17.8107C10.266 17.8107 10.1599 17.8319 10.0609 17.8729C9.96197 17.914 9.87206 17.9742 9.79636 18.05L8.92909 18.9173C8.61 19.2364 8.61 19.76 8.92909 20.0709C9.24818 20.3818 9.77182 20.39 10.0827 20.0709L10.95 19.2036Z" fill="#D0D0D0"/>
<circle cx="14.5" cy="14.5" r="14" stroke="#D4D4D4"/>
</svg>
