<svg width="24" height="28" viewBox="0 0 24 28" fill="none" xmlns="http://www.w3.org/2000/svg">
<path d="M10.4952 7.95001L10.3575 8.54267L11.0938 8.97175L11.0878 9.27535L10.3947 9.72139L10.5587 10.3284L11.4143 10.3072L11.5662 10.5624L11.1752 11.2986L11.6318 11.7448L12.3603 11.2982L12.6374 11.4564L12.6616 12.2362L13.2906 12.3823L13.6338 11.6878L13.9912 11.677L14.4037 12.3886L15.0147 12.208L14.9683 11.3849L15.248 11.2035L15.9928 11.5964L16.4223 11.1361L15.9819 10.4179L16.1299 10.1473L16.9734 10.1145L17.122 9.51266L16.369 9.11781L16.3804 8.76562L17.0684 8.34185L16.8985 7.75987L16.0263 7.77722L15.8815 7.49139L16.2807 6.79527L15.8019 6.34387L15.1301 6.78608L14.826 6.63041L14.8237 5.79411L14.1967 5.63967L13.8241 6.3977L13.4787 6.42011L13.0422 5.68529L12.3962 5.8901L12.4602 6.72607L12.1907 6.90103L11.4461 6.47001L11.0295 6.9627L11.4897 7.62089L11.3503 7.94335L10.4952 7.95001ZM14.1047 7.46287C14.9758 7.66519 15.5213 8.53677 15.3184 9.41045C15.1155 10.2841 14.2444 10.8267 13.3705 10.6237C12.4967 10.4207 11.9539 9.54982 12.1568 8.67614C12.3604 7.79967 13.2308 7.2599 14.1047 7.46287ZM12.1985 6.5392L10.987 5.83258L11.2448 4.72238L12.8649 4.70571L13.1257 4.1006L12.2712 2.86694L13.0505 1.93651L14.4454 2.75024L14.95 2.42168L14.8245 0.852952L16.0371 0.468912L16.858 1.84725L17.5046 1.80388L18.2042 0.382812L19.381 0.670802L19.3853 2.24364L19.953 2.53972L21.2142 1.70656L22.1148 2.5521L21.3655 3.85898L21.6427 4.39551L23.2784 4.36195L23.6018 5.45758L22.3053 6.25322L22.2915 6.91864L23.7033 7.66003L23.425 8.79481L21.8411 8.858L21.5551 9.3693L22.3831 10.717L21.5757 11.5793L20.1751 10.8405L19.6506 11.1791L19.7375 12.7243L18.5907 13.0649L17.8212 11.7308L17.15 11.7538L16.4911 13.1256L15.3111 12.8516L15.2849 11.4994L15.8757 11.8097L16.0401 11.8977L16.1688 11.7605L16.5983 11.3001L16.7264 11.1656L16.6281 11.0079L16.2618 10.4126L16.2767 10.3867L16.981 10.3597L17.1646 10.3525L17.2976 9.81738C18.6868 9.83505 19.9572 8.88671 20.2848 7.47601C20.6616 5.85385 19.6515 4.22923 18.0262 3.85172C16.6208 3.52529 15.2176 4.23749 14.619 5.48849L14.0615 5.35021L13.9737 5.52629L13.6628 6.15788L13.606 6.16229L13.146 5.38976L12.9626 5.44688L12.3167 5.65168L12.1326 5.71158L12.1463 5.90536L12.1985 6.5392Z" fill="#0B8237"/>
<path d="M5.59668 25.1851C5.59717 25.4922 5.68799 25.793 5.8584 26.0488L6.69287 27.3032C6.83542 27.5177 7.02877 27.6935 7.25572 27.8152C7.48266 27.9368 7.73616 28.0005 7.99365 28.0005H11.0068C11.2643 28.0005 11.5178 27.9368 11.7448 27.8152C11.9717 27.6935 12.1651 27.5177 12.3076 27.3032L13.1421 26.0488C13.3124 25.7929 13.4035 25.4925 13.4038 25.1851L13.4058 23.3125H5.59424L5.59668 25.1851ZM0.90625 11.5938C0.90625 13.7603 1.70947 15.7368 3.0332 17.2471C3.83984 18.1675 5.10156 20.0903 5.58252 21.7124C5.58447 21.7251 5.58594 21.7378 5.58789 21.7505H13.4121C13.4141 21.7378 13.4155 21.7256 13.4175 21.7124C13.8984 20.0903 15.1602 18.1675 15.9668 17.2471C17.2905 15.7368 18.0938 13.7603 18.0938 11.5938C18.0938 6.8384 14.2319 2.98537 9.47314 3.00002C4.49219 3.01515 0.90625 7.05129 0.90625 11.5938ZM9.5 7.68752C7.34619 7.68752 5.59375 9.43996 5.59375 11.5938C5.59375 12.0254 5.24414 12.375 4.8125 12.375C4.38086 12.375 4.03125 12.0254 4.03125 11.5938C4.03125 8.57814 6.48438 6.12502 9.5 6.12502C9.93164 6.12502 10.2812 6.47463 10.2812 6.90627C10.2812 7.33791 9.93164 7.68752 9.5 7.68752Z" fill="#17A24A"/>
</svg>
