<svg xmlns="http://www.w3.org/2000/svg" version="1.1" xmlns:xlink="http://www.w3.org/1999/xlink" xmlns:svgjs="http://svgjs.dev/svgjs" viewBox="0 0 800 800"><defs><linearGradient x1="50%" y1="0%" x2="50%" y2="100%" id="wwwhirl-grad"><stop stop-color="hsl(162, 100%, 58%)" stop-opacity="1" offset="45%"></stop><stop stop-color="hsl(270, 73%, 53%)" stop-opacity="1" offset="100%"></stop></linearGradient></defs><g stroke-width="2" stroke="url(#wwwhirl-grad)" fill="none" stroke-linecap="round"><path d="M-9.4999971597844 428.4791015222301C6.01136690691493 408.46944187618794 33.931822226973736 331.96739429922684 64.9545503603724 332.43273522122786C95.97727849377105 332.8980761432288 108.38636974713052 424.43063550082155 139.40909788052917 430.7127379478348C170.43182601392783 436.99484039484804 182.84091726728735 354.90870175387516 213.86364540068598 362.58682696689135C244.88637353408467 370.2649521799075 257.29546478744413 468.03307989231337 288.3181929208428 467.5677389703124C319.34092105424145 467.10239804831144 331.75001230760085 362.21455422929057 362.77274044099954 360.3531905412866C393.7954685743982 358.4918268532827 406.2045598277577 453.9797840478838 437.2272879611563 458.6331932678936C468.250016094555 463.2866024879034 480.6591073479145 383.38756618033517 511.6818354813132 382.6895547973337C542.7045636147118 381.9915434143322 555.1136548680712 462.72819338150225 586.1363830014699 455.2827386294865C617.1591111348687 447.8372838774709 629.5682023882281 346.02069014365645 660.5909305216268 346.95137198765843C691.6136586550256 347.88205383166036 704.0227499083849 456.4926250266891 735.0454780417836 459.75001148069595C766.0682061751821 463.0073979347028 793.988661495241 382.82915707393397 809.5000255619403 362.58682696689135 " transform="rotate(241.5, 400, 400)"></path><path d="M0.2500027725914151 427.80101668650155C15.392048647226474 408.2677775082223 42.6477312215696 333.5872072545222 72.93182297083973 334.04146863076124C103.21591472010982 334.4957300070003 115.3295514198179 423.8489427132218 145.613643169088 429.981471292449C175.8977349183581 436.1139998716762 188.0113716180662 355.98229310310745 218.2954633673363 363.4776058110518C248.57955511660646 370.97291851899615 260.69319181631454 466.41323366682093 290.9772835655846 465.95897229058187C321.2613753148548 465.5047109143428 333.3750120145628 363.1141967100606 363.6591037638329 361.29715120510434C393.943195513103 359.48010570014816 406.0568322128111 452.6945401044016 436.3409239620812 457.2371538667921C466.62501571135135 461.77976762918263 478.7386524110593 383.7830893289374 509.0227441603296 383.10169726457883C539.3068359095996 382.42030520022024 551.4204726093076 461.23465397769576 581.7045643585777 453.9664719578709C611.988656107848 446.6982899380461 624.102292807556 347.3059008169416 654.3863845568261 348.21442356941964C684.6704763060964 349.12294632189776 696.7841130058043 455.14755153609246 727.0682047550744 458.32738116976583C757.3522965043444 461.5072108034392 784.6079790786875 383.23797567745055 799.7500249533226 363.4776058110518 " transform="rotate(235.75, 400, 400)"></path><path d="M10.00000270496723 427.12294710956206C24.77273038753802 408.06612839904574 51.363640216165464 335.2070354686066 80.90909558130704 335.6502172990837C110.45455094644862 336.09339912956085 122.27273309250526 423.26726518441103 151.81818845764684 429.25021989585224C181.3636438227884 435.23317460729345 193.18182596884506 357.0558997111288 222.72728133398664 364.3683999140013C252.27273669912825 371.6809001168739 264.0909188451849 464.79340270011755 293.6363742103265 464.35022086964045C323.18182957546804 463.90703903916335 335.0000117215247 364.01385444961966 364.54546708666624 362.24112712771114C394.09092245180784 360.4683998058026 405.9091045978645 451.40931141970844 435.45455996300603 455.8411297244797C465.0000153281476 460.27294802925087 476.8181974742042 384.17862773632874 506.36365283934583 383.5138549906131C535.9091082044873 382.8490822448974 547.7272903505441 459.7411298326783 577.2727457156857 452.65022054504436C606.8182010808273 445.5593112574104 618.6363832268839 348.5911267490157 648.1818385920255 349.47749040996996C677.7272939571671 350.3638540709242 689.5454761032238 453.8024933042849 719.0909314683653 456.9047661176248C748.6363868335068 460.0070389309646 775.2272966621342 383.6468095397562 790.000024344705 364.3683999140013 " transform="rotate(230, 400, 400)"></path><path d="M19.750002637343044 426.4448966061089C34.15341212784958 407.86449836335544 60.079549210761314 336.8268827561773 88.88636819177435 337.2589850408925C117.69318717278742 337.69108732560767 129.21591476519262 422.6856067290867 158.02273374620566 428.5189875727418C186.8295527272187 434.352368416397 198.35228031962393 358.1295253926365 227.15909930063697 365.2592130904372C255.96591828165003 372.3889007882379 267.48864587405524 463.1735908069005 296.2954648550683 462.74148852218536C325.10228383608137 462.3093862374701 336.6250114284865 364.913531262665 365.4318304094996 363.18512212380426C394.23864939051265 361.45671298494347 405.76137698291785 450.1241018085016 434.56819596393086 454.44512465565356C463.3750149449439 458.7661475028055 474.89774253734925 384.57418521720643 503.7045615183622 383.92603179013366C532.5113804993753 383.27787836306084 544.0341080917804 458.2476247611473 572.8409270727935 451.33398820570415C601.6477460538066 444.42035165026107 613.1704736462118 349.8763717545762 641.9772926272249 350.7405763240066C670.784111608238 351.604780893437 682.3068392006431 452.45745414596365 711.1136581816561 455.48217013897005C739.9204771626692 458.5068861319764 765.8466142455809 384.0556624755482 780.2500237360874 365.2592130904372 " transform="rotate(224.25, 400, 400)"></path><path d="M29.500002569718873 425.7668079556831C43.53409386816112 407.66283018069254 68.79545820535719 338.4466918967754 96.86364080224169 338.86771463572865C124.93182339912619 339.2887373746819 136.15909643788 422.10391012678963 164.22727903476448 427.78771710265875C192.29546163164898 433.47152407852786 203.52273467040283 359.20311292717145 231.5909172672873 366.1499881199004C259.6590998641718 373.0968633126293 270.88637290292564 461.5537407667108 298.95455549981017 461.13271802775756C327.02273809669464 460.71169528880426 338.2500111354484 365.81316992873775 366.31819373233293 364.1290789729247C394.3863763292174 362.44498801711165 405.6136493679713 448.83885405032214 433.68183196485575 453.04908143985483C461.7500145617402 457.25930882938746 472.9772876004941 384.9697045511114 501.04547019737856 384.33817044268153C529.1136527942631 383.70663633425164 540.3409258330169 456.7540815426436 568.4091084299014 450.01771771939127C596.4772910267859 443.28135389613897 607.7045640655397 351.16157861316407 635.7727466624242 352.0036240910706C663.8409292593088 352.84566956897714 675.0682022980626 451.11237684066975 703.136384894947 454.0595360133426C731.2045674918314 457.0066951860155 756.4659318290276 384.46447726436753 770.5000231274698 366.1499881199004 " transform="rotate(218.5, 400, 400)"></path><path d="M39.25000250209469 425.08871549056C52.91477560847267 407.4611581833324 77.51136719995304 340.06649722267616 104.84091341270903 340.4764404158675C132.17045962546496 340.88638360905884 143.10227811056737 421.52220970979533 170.43182432332333 427.0564428178784C197.76137053607928 432.5906759259615 208.6931890211817 360.2766966470092 236.02273523393762 367.0407593346663C263.3522814466936 373.80482202232344 274.28409993179605 459.93388691182383 301.613646144552 459.5239437186325C328.94319235730796 459.11400052544116 339.8750108424103 366.71280478011323 367.2045570551663 365.0730320073479C394.5341032679222 363.4332592345825 405.46592175302465 447.5536024774454 432.7954679657806 451.6530344093588C460.12501417853656 455.75246634127217 471.056832663639 385.3652200703192 498.38637887639493 384.7503052805322C525.7159250891508 384.1353904907452 536.6477435742532 455.26053450944255 563.9772897870092 448.70144341838113C591.3068359997652 442.1423523273197 602.2386544848677 352.44678165705466 629.5682006976236 353.26666804343733C656.8977469103796 354.08655442982 667.8295653954821 449.76729572067865 695.1591116082378 452.636898073018C722.4886578209938 455.50650042535733 747.0852494124741 384.8732882384896 760.7500225188521 367.0407593346663 " transform="rotate(212.75, 400, 400)"></path><path d="M49.0000024344705 424.41064972831776C62.295457348784225 407.25951288885307 86.22727619454892 341.68632925145783 112.81818602317634 342.08519289888727C139.40909585180376 342.48405654631665 150.04545978325473 420.9405359956819 176.63636961188215 426.3251952359789C203.22727944050956 431.709854476276 213.86364337196056 361.3503070697278 240.45455320058795 367.9315572523131C267.0454630292154 374.5128074348984 277.6818269606664 458.3140597598177 304.27273678929384 457.91519611238834C330.86364661792123 457.5163324649589 341.5000105493722 367.61246633436957 368.0909203779996 366.01701174465194C394.681830206627 364.4215571549343 405.31819413807807 446.2683776074495 431.90910396670546 450.2570140817436C458.50001379533285 454.24565055603773 469.1363777267839 385.7607622924078 495.7272875554113 385.1624668212637C522.3181973840387 384.5641713501196 532.9545613154896 453.76701417912244 559.5454711441171 447.38519582025185C586.1363809727446 441.0033774613813 596.7727449041955 353.73201140382605 623.363654732823 354.52973869868487C649.9545645614505 355.3274659935437 660.5909284929014 448.42224130356834 687.1818383215287 451.2142868355742C713.7727481501562 454.00633236758006 737.7045669959208 385.2821259154925 751.0000219102345 367.9315572523131 " transform="rotate(207, 400, 400)"></path><path d="M58.75000236684633 423.73258396607554C71.67613908909577 407.05786759437376 94.94318518914477 343.3061612802395 120.79545863364365 343.693945381907C146.64773207814255 344.08172948357446 156.98864145594212 420.35886228156846 182.84091490044096 425.59394765407944C208.69318834493987 430.8290330265905 219.03409772273943 362.42391749244644 244.8863711672383 368.8223551699599C270.7386446117372 375.2207928474734 281.07955398953675 456.6942326078116 306.93182743403565 456.30644850614414C332.7841008785345 455.91866440447666 343.12501025633406 368.5121278886259 368.97728370083297 366.960991481956C394.8295571453319 365.40985507528603 405.17046652313144 444.9831527374536 431.0227399676303 448.86099375412846C456.87501341212914 452.7388347708033 467.21592278992875 386.1563045144964 493.0681962344276 385.57462836199517C518.9204696789265 384.992952209494 529.261379056726 452.2734938488023 555.1136525012249 446.0689482221226C580.9659259457238 439.8644025954428 591.3068353235234 355.0172411505975 617.1591087680223 355.79280935393245C643.0113822125213 356.5683775572674 653.3522915903208 447.07718688645804 679.2045650348196 449.79167559813044C705.0568384793185 452.5061643098028 728.3238845793675 385.69096359249545 741.2500213016169 368.8223551699599 " transform="rotate(201.25, 400, 400)"></path><path d="M68.50000229922215 423.0544876862552C81.05682082940731 406.85619178231633 103.65909418374065 344.92596279144306 128.772731244111 345.3026673473486C153.88636830448132 345.67937190325415 163.93182312862947 419.77715804987685 189.0454601889998 424.8626695546019C214.15909724937015 429.9481810593269 224.2045520735183 363.4974973975869 249.31818913388864 369.7131225700286C274.431826194259 375.92874774247025 284.4772810184072 455.0743749382274 309.5909180787775 454.6976703823218C334.7045551391478 454.3209658264162 344.75000996329595 369.4117589253041 369.8636470236663 367.9049407016819C394.9772840840366 366.3981224780597 405.0227389081848 443.6978973498796 430.1363759685551 447.4649429089352C455.2500130289255 451.23198846799073 465.29546785307366 386.5518162190069 490.40910491344397 385.98675938514856C515.5227419738143 385.4217025512902 525.5681967979624 450.77994300090404 550.6818338583328 444.75267010641517C575.7954709187031 438.7253972119263 585.8409257428514 356.3024403797908 610.9545628032217 357.0558494916019C636.0681998635921 357.809258603413 646.1136546877401 445.7321019517696 671.2272917481105 448.36903384310847C696.3409288084807 451.0059657344474 718.943202162814 386.09977075192023 731.5000206929993 369.7131225700286 " transform="rotate(195.5, 400, 400)"></path><path d="M78.25000223159796 422.3764257387102C90.43750256971887 406.65455030253423 112.3750031783365 346.545798634922 136.75000385457832 346.9114236450656C161.1250045308201 347.2770486552092 170.87500480131683 419.1954881504607 195.25000547755863 424.1314257873996C219.62500615380043 429.0673634243386 229.3750064242972 364.5711116350028 253.750007100539 370.6039243023726C278.12500777678076 376.63673696974246 287.87500804727756 453.45455160091853 312.2500087235194 453.0889265907749C336.62500939976115 452.7233015806313 346.37500967025784 370.31142429425773 370.75001034649966 368.8489242536832C395.12501102274143 367.38642421310874 404.87501129323823 442.412676294581 429.25001196948 446.0689263960173C453.62501264572177 449.7251764974535 463.3750129162185 386.94736225579277 487.75001359246033 386.3989247405773C512.1250142687021 385.85048722536186 521.8750145391988 449.28642648528114 546.2500152154407 443.43642632298315C570.6250158916826 437.5864261606851 580.3750161621792 357.5876739412595 604.7500168384211 358.3189239615468C629.1250175146629 359.050173981834 638.8750177851596 444.38705134935657 663.2500184614013 446.94642642036195C687.6250191376431 449.5058014913674 709.5625197462607 386.5086122436204 721.7500200843816 370.6039243023726 " transform="rotate(189.75, 400, 400)"></path><path d="M88.00000216397379 421.6983714205598C99.81818431003042 406.4529164521467 121.09091217293238 348.1656421077954 144.72727646504563 348.5201875721771C168.3636407571589 348.87473303655884 177.81818647400422 418.61382588043904 201.45455076611745 423.400189649592C225.09091505823073 428.1865534187449 234.54546077507607 365.64473350181316 258.1818250671893 371.4947336641112C281.81818935930255 377.34473382640925 291.2727350761479 451.8347358930042 314.9090993682612 451.4801904286225C338.5454636603744 451.1256449642408 348.0000093772197 371.21109729260587 371.636373669333 369.79291543507907C395.2727379614463 368.37473357755226 404.7272836782916 441.1274628686769 428.3636479704048 444.6729175124939C452.00001226251806 448.21837215631086 461.4545579793634 387.34291592197314 485.09092227147664 386.8110977254006C508.7272865635899 386.27927952882806 518.1818322804352 447.7929175990528 541.8181965725485 442.12019016894567C565.4545608646619 436.44746273883845 574.9091065815071 358.8729151321227 598.5454708736204 359.5820060608861C622.1818351657338 360.29109698964953 631.636380882579 443.0420083763381 655.2727451746922 445.52382662700995C678.9091094668055 448.0056448776819 700.1818373297074 386.9174613647151 712.000019475764 371.4947336641112 " transform="rotate(184, 400, 400)"></path><path d="M97.7500020963496 421.0202789554367C109.19886605034196 406.25124445478656 129.80682116752823 349.7854474336962 152.70454907551294 350.128913352316C175.6022769834977 350.4723792709358 184.76136814669155 418.0321254634447 207.6590960546763 422.6689153648116C230.556823962661 427.3057052661785 239.71591512585493 366.7183172216509 262.61364303383965 372.38550487887716C285.5113709418244 378.0526925361034 294.6704621050183 450.21488203811725 317.568190013003 449.87141611949744C340.46591792098775 449.5279502008777 349.6250090841816 372.11073214398135 372.52273699216636 370.73686846950227C395.42046490015105 369.3630047950232 404.57955606334497 439.84221129580015 427.47728397132965 443.2768704819979C450.37501187931446 446.71152966819557 459.5341030425084 387.7384314411809 482.431830950493 387.22323256325126C505.3295588584777 386.7080336853216 514.4886500216717 446.29937056585186 537.3863779296564 440.80391586793553C560.2841058376412 435.3084611700192 569.443197000835 360.1581181760133 592.3409249088197 360.84505001325283C615.2386528168046 361.5319818504924 624.3977439799984 441.69692725634695 647.295471887983 444.1011886866853C670.1931997959678 446.5054501170237 690.8011549131539 387.32627233883716 702.2500188671464 372.38550487887716 " transform="rotate(178.25, 400, 400)"></path><path d="M107.50000202872542 420.34220556379995C118.57954779065352 406.0495915309127 138.5227301621241 351.40527183308336 160.68182168598028 351.7376582059412C182.84091320983646 352.07004457879907 191.70454981937894 417.4504441199367 213.86364134323512 421.9376601535176C236.02273286709132 426.42487618709845 244.8863694766338 367.791920014975 267.04546100049004 373.27629516712943C289.2045525243461 378.7606703192838 298.06818913388867 448.5950472567166 320.22728065774487 448.26266088385876C342.386372181601 447.9302745110009 351.2500087911435 373.01038606884316 373.40910031499965 371.6808405774118C395.56819183885585 370.3512950859804 404.4318284483984 438.55697879640974 426.59091997225454 441.88084252498817C448.7500114961107 445.2047062535666 457.6136481056532 388.13396603387497 479.7727396295094 387.63538647458824C501.9318311533656 387.13680691530146 510.79546776290795 444.80584260613716 532.9545592867642 439.4876606404117C555.1136508106205 434.1694786746862 563.9772874201628 361.4433402933902 586.1363789440192 362.1081130391059C608.2954704678754 362.7728857848216 617.1591070774178 440.3518652098421 639.3181986012739 442.678569819847C661.4772901251301 445.0052744298519 681.4204724966007 387.7351023864456 692.5000182585288 373.27629516712943 " transform="rotate(172.5, 400, 400)"></path><path d="M117.25000196110125 419.6641398015577C127.96022953096507 405.8479462364334 147.23863915671996 353.02510386186503 168.65909429644762 353.34641068896093C190.07954943617523 353.6677175160568 198.64773149206633 416.8687704058233 220.06818663179394 421.2064125716181C241.4886417715216 425.544054737413 250.0568238274127 368.8655304376936 271.47727896714036 374.1670930847762C292.897734106868 379.4686557318588 301.4659161627591 446.9752201047105 322.88637130248674 446.6539132776146C344.3068264422143 446.33260645051865 352.87500849810533 373.91004762309944 374.295463637833 372.6248203147158C395.71591877756066 371.33959300633217 404.28410083345176 437.27175392641385 425.70455597317937 440.484822197373C447.12501111290703 443.69789046833216 455.69319316879813 388.5295082559636 477.11364830852574 388.0475480153197C498.53410344825335 387.56558777467586 507.1022855041444 443.31232227581705 528.5227406438721 438.17141304228244C549.9431957835998 433.03050380874777 558.5113778394908 362.7285700401616 579.9318329792186 363.3711836943535C601.3522881189463 364.0137973485453 609.9204701748372 439.0068107927318 631.3409253145649 441.2559585824032C652.7613804542924 443.5051063720746 672.0397900800473 388.1439400634485 682.7500176499111 374.1670930847762 " transform="rotate(166.75, 400, 400)"></path><path d="M127.00000189347706 418.98607022461823C137.3409112712766 405.64629712725684 155.9545481513158 354.64493207594944 176.63636690691493 354.9551593572834C197.31818566251405 355.2653866386174 205.59091316475366 416.2870928770126 226.27273192035278 420.4751611750214C246.95455067595188 424.6632294730302 255.22727817819154 369.939137045715 275.9090969337907 375.0578871877257C296.59091568938976 380.17663732973654 304.8636431916294 445.3553891380071 325.54546194722855 445.04516185667313C346.22728070282767 444.73493457533914 354.5000082050673 374.8097053626585 375.1818269606664 373.5687962373226C395.86364571626547 372.3278871119867 404.1363732185051 435.98652524172076 424.81819197410425 439.0887980550606C445.5000107297034 442.1910708684004 453.772738231943 388.9250466633549 474.4545569875421 388.45970574135396C495.1363757431411 387.994364819353 503.40910324538083 441.8187981307997 524.09092200098 436.8551616294559C544.7727407565791 431.8915251281121 553.0454682588188 364.0137959722358 573.7272870144179 364.6342505349038C594.409105770017 365.2547050975718 602.6818332722567 437.66175256092424 623.3636520278557 439.83334353026214C644.0454707834547 442.00493449960004 662.659107663494 388.55277392575414 673.0000170412935 375.0578871877257 " transform="rotate(161, 400, 400)"></path><path d="M136.75000182585288 418.30798920358694C146.72159301158817 405.4446365739884 164.67045714591168 356.264748845942 184.61363951738224 356.5638965815141C204.55682188885282 356.8630443170861 212.53409483744105 415.70540390411 232.47727720891163 419.7438983343328C252.4204595803822 423.78239276455565 260.39773252897044 371.01273220964447 280.340914900441 375.94866984658347C300.28409727191155 380.8846074835224 308.26137022049977 443.73554672721195 328.20455259197036 443.43639899163986C348.14773496344094 443.13725125606777 356.1250079120291 375.7093516581258 376.0681902834997 374.5127607158376C396.0113726549703 373.31616977354935 403.9886456035585 434.70128511293575 423.9318279750291 437.6927624686563C443.87501034649966 440.68423982437696 451.8522832950879 389.3205736266545 471.79546566655847 388.8718520232964C491.738648038029 388.42313041993833 499.7159209866172 440.32526254169045 519.6591033580878 435.5388987725375C539.6022857295584 430.7525350033846 547.5795586781467 365.2990104602182 567.5227410496173 365.8973059313623C587.4659234210878 366.4956014025064 595.4431963696761 436.3166828850249 615.3863787411465 438.4107170340293C635.3295611126171 440.5047511830337 653.2784252469406 388.96159634396804 663.2500164326759 375.94866984658347 " transform="rotate(155.25, 400, 400)"></path><path d="M146.49998649943964 417.62990818255565C156.10225949311064 405.24297602072005 173.3863508817185 357.8845656159346 192.59089686906051 358.17263380574474C211.79544285640253 358.46070199555487 219.47726125133937 415.12371493120753 238.68180723868136 419.01263549364427C257.8863532260234 422.90155605608106 265.56817162096024 372.086327373574 284.7727176083023 376.8394525054412C303.97726359564433 381.59257763730835 311.6590819905811 442.1157043164168 330.86362797792316 441.82763612660665C350.06817396526515 441.5395679367965 357.749992360202 376.6089979535931 376.95453834754403 375.45672519435254C396.1590843348861 374.30445243511207 403.84090272982286 433.4160449841508 423.04544871716485 436.29672688225213C442.2499947045069 439.1774087803534 449.93181309944373 389.716100589954 469.1363590867858 389.2839983052388C488.34090507412776 388.8518960205236 496.02272346906454 438.8317269525813 515.2272694564066 434.2226359156192C534.4318154437487 429.6135448786571 542.1136338386855 366.58422494820053 561.3181798260275 367.1603613278208C580.5227258133696 367.73649770744106 588.2045442083064 434.9716132091255 607.4090901956483 436.98809053779644C626.6136361829904 439.00456786646737 643.8977275715981 389.3704187621819 653.5000005652691 376.8394525054412 " transform="rotate(149.5, 400, 400)"></path><path d="M156.24998643181544 416.9518233468271C165.4829412334222 405.0413116527544 182.10225987631435 359.50437857122995 200.56816947952782 359.7813672152781C219.03407908274133 360.05835585932635 226.4204429240267 414.54202214360777 244.8863525272402 418.28136883825846C263.3522621304537 422.0207155329092 270.7386259717391 373.1599187228063 289.2045355749526 377.73023134960164C307.6704451781661 382.30054397639697 315.0568090194515 440.49585809092434 333.52271862266497 440.2188694468761C351.9886282258785 439.9418808028279 359.3749920671638 377.5086404343631 377.8409016703773 376.4006858581703C396.3068112735908 375.29273128197747 403.6931751148762 432.1308010406686 422.15908471808973 434.9006874811506C440.62499432130323 437.67057392163264 448.01135816258864 390.1116237385563 466.47726776580214 389.696140772484C484.9431773690156 389.2806578064117 492.32954121030093 437.3381875487748 510.79545081351444 432.90636924400354C529.2613604167279 428.47455093923236 536.6477242580133 367.86943562148565 555.1136338612268 368.42341290958205C573.5795434644403 368.97739019767846 580.9659073057258 433.6265397185289 599.4318169089393 435.5654602268663C617.8977265121526 437.5043807352037 634.5170451550448 389.77923736569846 643.7499999566517 377.73023134960164 " transform="rotate(143.75, 400, 400)"></path><path d="M165.99998636419127 416.27378428746573C174.86362297373375 404.83969306115597 190.8181688709102 361.1242373028925 208.54544208999516 361.39014640117875C226.2727153090801 361.656055499465 233.3636245967141 413.96037513237513 251.09089781579905 417.5501479592399C268.818171034884 421.13992078610454 275.909080322518 374.2335558484058 293.63635354160294 378.6210559701293C311.3636267606879 383.0085560918528 318.45453604832187 438.8760576417991 336.18180926740683 438.61014854351276C353.9090824864918 438.3442394452265 360.99999177412576 378.4083286915003 378.72726499321067 377.3446922983552C396.45453821229563 376.2810559052101 403.54544749992965 430.84560287355356 421.27272071901456 433.50469385641634C438.9999939380995 436.16378483927906 446.09090322573354 390.50719266352576 463.8181764448185 390.1083290160964C481.5454496639034 389.70946536866694 488.6363589515373 435.84469392133553 506.36363217062234 431.5901483487552C524.0909053897072 427.33560277617477 531.1818146773412 369.15469207113796 548.9090878964263 369.6865102677105C566.6363611155112 370.21832846428305 573.7272704031452 432.28151200429943 591.4545436222301 434.1428756923034C609.181816841315 436.0042393803073 625.1363627384915 390.18810174558223 633.999999348034 378.6210559701293 " transform="rotate(138, 400, 400)"></path><path d="M175.7499862965671 415.5956880076454C184.2443047140453 404.63801724909854 199.53407786550608 362.74403881409603 216.52271470046247 362.99886836662034C233.5113515354189 363.2536979191447 240.30680626940148 413.3786709006836 257.29544310435784 416.8188698597623C274.28407993931427 420.25906881884094 281.07953467329685 375.3071357535463 298.0681715082533 379.511823370198C315.0568083432097 383.7165109868497 321.8522630771922 437.25619997221486 338.84089991214864 437.0013704196905C355.82953674710507 436.7465408671661 362.6249914810876 379.3079597281785 379.613628316044 378.28864151808114C396.60226515100044 377.26932330798377 403.397719884983 429.5603474859796 420.3863567199394 432.108643011223C437.3749935548958 434.6569385364665 444.1704482888784 390.90270436803627 461.1590851238348 390.5204600392497C478.1477219587912 390.1382157104632 484.94317669277376 434.35114307343724 501.9318135277302 430.2738702330478C518.9204503626866 426.1965973926582 525.7159050966692 370.4398913003313 542.7045419316257 370.94955040537997C559.693178766582 371.45920951042865 566.4886335005646 430.93642706961106 583.4772703355209 432.7202339372815C600.4659071704773 434.5040408049519 615.7556803219381 390.596908905007 624.2499987394164 379.511823370198 " transform="rotate(132.25, 400, 400)"></path><path d="M185.49998622894293 414.9176146160086C193.62498645435684 404.43636432522464 208.24998686010196 364.3638632134831 224.4999873109298 364.6076132202455C240.74998776175767 364.85136322700794 247.24998794208884 412.7969895571756 263.4999883929167 416.0876146484682C279.7499888437445 419.3782397397609 286.2499890240757 376.38073854687036 302.4999894749036 380.40261365845026C318.7499899257315 384.42448877003017 325.2499901060626 435.63636519081416 341.4999905568905 435.39261518405175C357.74999100771834 435.14886517728934 364.24999118804953 380.2076136530403 380.49999163887736 379.23261362599067C396.7499920897052 378.25761359894096 403.2499922700364 428.27511498658913 419.49999272086427 430.7126150542133C435.74999317169215 433.15011512183753 442.2499933520233 391.2982389607303 458.4999938028512 390.9326139505867C474.749994253679 390.5669889404431 481.24999443401015 432.8576151137226 497.49999488483803 428.9576150055239C513.749995335666 425.05761489732527 520.249995515997 371.72511341770814 536.499995966825 372.21261343123297C552.7499964176529 372.70011344475785 559.249996597984 429.5913650231062 575.4999970488118 431.29761507044316C591.7499974996397 433.00386511778004 606.3749979053847 391.00573895261545 614.4999981307988 380.40261365845026 " transform="rotate(126.5, 400, 400)"></path><path d="M195.24998616131873 414.2395488537664C203.0056681946684 404.23471903074534 216.9658958546978 365.9836952422648 232.47725992139715 366.2163657032653C247.98862398809646 366.44903616426575 254.1931696147762 412.21531584306217 269.70453368147554 415.35636706656874C285.2158977481748 418.49741829007536 291.4204433748546 377.454348969589 306.93180744155393 381.293411576097C322.4431715082533 385.1324741826051 328.64771713493303 434.01653803880805 344.1590812016324 433.78386757780754C359.67044526833166 433.5511971168071 365.87499089501136 381.10727520729665 381.3863549617107 380.17659336329467C396.89771902841005 379.24591151929275 403.1022646550898 426.9898901165933 418.6136287217891 429.31659472659817C434.12499278848844 431.64329933660304 440.3295384151682 391.69378118281895 455.84090248186754 391.3447754913182C471.35226654856683 390.9957697998175 477.55681217524653 431.3640947834025 493.0681762419459 427.6413674073946C508.5795403086453 423.9186400313868 514.784085935325 373.0103431644796 530.2954500020244 373.47568408648056C545.8068140687237 373.9410250084816 552.0113596954034 428.2463106059959 567.5227237621027 429.87500383299937C583.0340878288021 431.50369706000276 596.9943154888315 391.41457662961835 604.749997522181 381.293411576097 " transform="rotate(120.75, 400, 400)"></path><path d="M204.99998609369456 413.5614678327351C212.38634993497993 404.03305847747697 225.68180484929366 367.6035120122574 240.45453253186446 367.82510292749595C255.22726021443526 368.0466938427345 261.1363512874636 411.6336268701596 275.90907897003433 414.62510422588025C290.68180665260513 417.6165815816008 296.59089772563345 378.5279441335185 311.36362540820426 382.18419423495476C326.13635309077506 385.84044433639104 332.0454441638034 432.3966956280129 346.8181718463742 432.1751047127743C361.590899528945 431.9535137975358 367.4999906019733 382.00692150276393 382.27271828454406 381.12055784180967C397.04544596711486 380.2341941808554 402.9545370401432 425.70464998780835 417.7272647227139 427.9205591401939C432.49999240528473 430.13646829257954 438.40908347831305 392.08930814611847 453.18181116088385 391.7569217732606C467.9545388434546 391.4245354004028 473.863629916483 429.87055919429326 488.6363575990538 426.3251045504763C503.4090852816246 422.7796499066593 509.3181763546529 374.295557652462 524.0909040372237 374.7387394829391C538.8636317197945 375.1819213134162 544.7727227928228 426.90124093009655 559.5454504753936 428.45237733676646C574.3181781579643 430.00351374343643 587.613633072278 391.8233990478322 594.9999969135635 382.18419423495476 " transform="rotate(115, 400, 400)"></path><path d="M214.74998602607036 412.88339444109835C221.7670316752915 403.83140555360313 234.39771384388953 369.22333641164454 248.43180514233177 369.43384778112113C262.46589644077403 369.6443591505978 268.0795329601509 411.05194552665165 282.1136242585932 413.8938490145862C296.14771555703544 416.73575250252077 301.7613520764123 379.60154692684256 315.7954433748546 383.07498452320704C329.82953467329685 386.54842211957146 335.44317119267373 430.77686084661224 349.477262491116 430.5663494771356C363.51135378955826 430.355838107659 369.12499030893514 382.90657542762574 383.1590816073774 382.0645299497192C397.19317290581967 381.22248447181266 402.80680942519655 424.41941748841793 416.8409007236388 426.52453118318425C430.8749920220811 428.62964487795057 436.48862854145796 392.4848427388126 450.5227198399002 392.1690756845976C464.5568111383425 391.8533086303827 470.17044765771936 428.3770312345786 484.2045389561616 425.00884932295247C498.2386302546039 421.6406674113263 503.8522667739808 375.58077976983884 517.886358072423 376.00180250879214C531.9204493708653 376.4228252477454 537.5340858902423 425.5561788835917 551.5681771886844 427.02975846992814C565.6022684871266 428.5033380562646 578.2329506557247 392.23222909544063 585.2499963049459 383.07498452320704 " transform="rotate(109.25, 400, 400)"></path><path d="M224.4999859584462 412.20532104946165C231.14771341560305 403.6297526297293 243.1136228384854 370.8431608110317 256.40907775279913 371.04259263474637C269.7045326671128 371.24202445846106 275.0227146328383 410.4702641831437 288.318169547152 413.1625938032922C301.61362446146575 415.8549234234407 306.9318064271912 380.67514972016664 320.2272613415049 383.9657748114593C333.52271625581864 387.2563999027519 338.84089822154414 429.1570260652116 352.13635313585786 428.9575942414969C365.4318080501715 428.75816241778216 370.749990015897 383.80622935248755 384.04544493021075 383.0085020576287C397.3408998445244 382.21077476276986 402.65908181025 423.1341849890275 415.9545367245637 425.12850322617453C429.24999163887736 427.1228214633216 434.56817360460286 392.8803773315066 447.8636285189166 392.5812295959346C461.1590834332303 392.2820818603625 466.47726539895575 426.8835032748639 479.7727203132695 423.69259409542866C493.06817522758325 420.5016849159934 498.3863571933087 376.86600188721576 511.6818121076224 377.2648655346452C524.9772670219362 377.6637291820746 530.2954489876616 424.21111683708693 543.5909039019753 425.6071396030898C556.886358816289 427.00316236909276 568.8522682391713 392.641059143049 575.4999956963281 383.9657748114593 " transform="rotate(103.5, 400, 400)"></path><path d="M234.24998589082202 411.527241935779C240.5283951559146 403.4280939838095 251.82953183308126 372.46297948837287 264.38635036326644 372.65133176632565C276.94316889345157 372.83968404427844 281.9658963055257 409.8885771175898 294.5227148357109 412.4313328699523C307.079533365896 414.9740886223148 312.10226077797006 381.74874679144483 324.65907930815524 384.85655937766563C337.2158978383404 387.9643719638865 342.23862525041454 427.53718556176506 354.7954437805997 427.34883328381227C367.35226231078485 427.1604810058595 372.3749897228589 384.70587755530346 384.9318082530441 383.9524684434923C397.4886267832293 383.1990593316812 402.51135419530334 421.8489467675912 415.06817272548847 423.73246954711897C427.62499125567365 425.61599232664673 432.64771866774777 393.27590620215483 445.20453719793295 392.9933777852257C457.7613557281181 392.71084936829646 462.78408314019214 425.3899695931034 475.3409016703773 422.37633314585895C487.8977202005625 419.3626966986145 492.9204476126366 378.1512182825468 505.4772661428218 378.52792283845235C518.034084673007 378.9046273943579 523.056812085081 422.8660490685362 535.6136306152662 424.1845150142056C548.1704491454514 425.50298095987506 559.471585822618 393.0498834686115 565.7499950877107 384.85655937766563 " transform="rotate(97.75, 400, 400)"></path><path d="M243.99998582319785 410.8491838029313C249.90907689622614 403.22645631872473 260.5454408276771 374.08281914654907 272.36362297373375 374.2600918787399C284.1818051197904 374.4373646109308 288.9090779782131 409.30691103287086 300.72726012426966 411.70009291744736C312.5454422703263 414.0932748020238 317.272715128749 382.822364843558 329.09089727480557 385.747364924707C340.9090794208622 388.672365005856 345.6363522792849 425.9173660391535 357.45453442534154 425.74009330696265C369.2727165713982 425.56282057477176 373.9999894298208 385.60554673895433 385.81817157587744 384.8964558101909C397.6363537219341 384.18736488142747 402.3636265803567 420.56372952698985 414.18180872641335 422.3364568488983C425.99999087247 424.1091841708068 430.7272637308927 393.67145605363794 442.54544587694926 393.40554695535167C454.3636280230059 393.1396378570654 459.0909008814285 423.8964568921778 470.90908302748517 421.0600931771242C482.72726517354187 418.2237294620706 487.4545380319645 379.4364556587127 499.27272017802113 379.7910011230944C511.09090232407783 380.14554658747613 515.8181751825005 421.5210022808204 527.6363573285571 422.76191140615634C539.4545394746137 424.0028205314923 550.0909034060646 393.4587287750089 555.999994479093 385.747364924707 " transform="rotate(92, 400, 400)"></path><path d="M253.74998575557365 410.17109896720274C259.2897586365377 403.0247919507591 269.261349822273 375.7026321018444 280.34089558420106 375.86882528827334C291.42044134612917 376.03501847470227 295.8522596509004 408.7252182452711 306.9318054128285 410.96882626206155C318.0113511747566 413.21243427885196 322.44316947952785 383.8959561927902 333.52271524145596 386.63814376886745C344.602261003384 389.38033134494464 349.03407930815524 424.29751981366104 360.11362507008334 424.1313266272321C371.19317083201145 423.9651334408032 375.6249891367827 386.5051892197243 386.7045348987108 385.84041647400863C397.7840806606389 385.1756437282929 402.21589896541013 419.27848558350763 413.29544472733824 420.94041744779685C424.3749904892663 422.60234931208606 428.8068087940376 394.06697920224025 439.8863545559656 393.81768942259686C450.9659003178937 393.56839964295347 455.3977186226649 422.4029174883713 466.477264384593 419.7438265055086C477.5568101465212 417.0847355226459 481.98862845129236 380.7216663319978 493.0681742132205 381.0540527048557C504.1477199751486 381.38643907771353 508.57953827991986 420.1759287902238 519.6590840418479 421.3392810952262C530.738629803776 422.50263340022866 540.7102209895113 393.8675473785255 546.2499938704754 386.63814376886745 " transform="rotate(86.25, 400, 400)"></path><path d="M263.49998568794945 409.4930274829146C268.6704403768492 402.8231409342339 277.97725881686887 377.3224584085802 288.3181681946684 377.47757204924716C298.65907757246794 377.6326856899142 302.79544132358774 408.14353880911176 313.1363507013873 410.2375729581162C323.47726007918686 412.3316071071206 327.6136238303067 384.9695608934629 337.9545332081063 387.52893596446836C348.2954425859058 390.08831103547374 352.43180633702565 422.67768693960903 362.7727157148252 422.522573298942C373.1136250926248 422.36745965827504 377.2499888437446 387.4048450519347 387.59089822154414 386.7843904892668C397.93180759934364 386.1639359265988 402.0681713504635 417.99325499146585 412.40908072826306 419.54439139813576C422.7499901060626 421.09552780480567 426.8863538571824 394.46251570228293 437.227263234982 394.2298452412824C447.5681726127815 393.99717478028197 451.70453636390135 420.9093914360053 462.0454457417009 418.4275731853334C472.3863551195005 415.9457549346615 476.52271887062034 382.0068903567234 486.8636282484199 382.31711763805737C497.20453762621946 382.62734491939136 501.34090137733926 418.8308686510676 511.68181075513877 419.91666413573654C522.0227201329383 421.0024596204055 531.329538572958 394.27637933348257 536.4999932618578 387.52893596446836 " transform="rotate(80.5, 400, 400)"></path><path d="M273.2499856203253 408.8149559986265C278.0511221171608 402.6214899177087 286.6931678114647 378.94228471531596 296.29544080513574 379.086318810221C305.89771379880676 379.2303529051261 309.7386229962751 407.5618593729524 319.34089598994615 409.5063196541708C328.94316898361717 411.45077993538916 332.7840781810856 386.04316559413564 342.3863511747566 388.4197281600692C351.98862416842763 390.7962907260028 355.82953336589605 421.057854065557 365.4318063595671 420.91381997065196C375.03407935323804 420.7697858757469 378.87498855070646 388.30450088414517 388.4772615443775 387.7283645045249C398.0795345380485 387.15222812490464 401.92044373551687 416.70802439942406 411.5227167291879 418.14836534847467C421.1249897228589 419.58870629752533 424.96589892032733 394.85805220232567 434.56817191399836 394.64200105996804C444.1704449076693 394.42594991761047 448.01135410513774 419.41586538363924 457.61362709880876 417.11131986515824C467.21590009247984 414.8067743466772 471.0568092899482 383.2921143814489 480.6590822836192 383.58018257125906C490.26135527729025 383.8682507610692 494.10226447475867 417.4858085119114 503.70453746842963 418.49404717624685C513.3068104621007 419.5022858405823 521.9488561564045 394.6852112884396 526.74999265324 388.4197281600692 " transform="rotate(74.75, 400, 400)"></path><path d="M283.00000081149017 408.1368806996411C287.4318191162614 402.41983508648616 295.40909206484963 380.5621072073544 304.2727286743921 380.6950617564976C313.1363652839346 380.8280163056407 316.6818199277516 406.98017612209577 325.54545653729406 408.77506253552815C334.40909314683654 410.5699489489605 337.9545477906535 387.1167664801111 346.818184400196 389.31051654097286C355.6818210097385 391.5042666018346 359.22727565355547 419.43801737680775 368.09091226309795 419.3050628276646C376.95454887264043 419.1721082785215 380.5000035164574 389.20415290165835 389.36364012599984 388.6723347050858C398.2272767355423 388.14051650851326 401.77273137935936 415.422789992685 410.63636798890184 416.7523354841164C419.5000045984443 418.08188097554773 423.0454592422613 395.2535848876711 431.9090958518038 395.0541530639564C440.7727324613462 394.8547212402417 444.3181871051632 417.92233551657597 453.18182371470573 415.7950627302858C462.04546032424815 413.66778994399556 465.59091496806514 384.57733459147715 474.4545515776077 384.8432436897634C483.31818818715016 385.10915278804976 486.86364283096714 416.1407445580579 495.72727944050956 417.0714264020599C504.59091605005204 418.0021082460619 512.5681889986403 395.0940394286993 517.0000073034115 389.31051654097286 " transform="rotate(69, 400, 400)"></path><path d="M292.750000743866 407.45881493739887C296.81250085657297 402.21818979200685 304.1250010594455 382.1819392361361 312.2500012848594 382.3038142395173C320.37500151027336 382.4256892428985 323.62500160043896 406.39850240798233 331.7500018258529 408.04381495362867C339.8750020512668 409.689127499275 343.1250021414324 388.1903769028297 351.25000236684633 390.20131445861966C359.3750025922603 392.2122520144096 362.6250026824258 417.81819022480164 370.75000290783976 417.69631522142043C378.8750031332537 417.5744402180392 382.1250032234193 390.1038144559147 390.25000344883324 389.61631444238986C398.3750036742471 389.128814428865 401.6250037644127 414.1375651226891 409.75000398982667 415.3563151565012C417.8750042152406 416.5750651903133 421.12500430540615 395.6491271097597 429.2500045308201 395.4663146046879C437.37500475623403 395.28350209961604 440.62500484639963 416.42881518625586 448.7500050718136 414.4788151321565C456.8750052972275 412.52881507805716 460.12500538739306 385.8625643382486 468.25000561280706 386.106314345011C476.375005838221 386.3500643517734 479.62500592838654 414.7956901409476 487.7500061538004 415.6488151646161C495.87500637921437 416.50194018828455 503.1875065820869 395.5028771057022 507.2500066947939 390.20131445861966 " transform="rotate(63.25, 400, 400)"></path><path d="M302.5000006762418 406.7807301016703C306.1931825968845 402.0165254240412 312.8409100540414 383.80175219143143 320.2272738953268 383.91254764905074C327.6136377366122 384.02334310667 330.56818327312635 405.81680962038257 337.9545471144117 407.31254829824286C345.3409109556971 408.80828697610315 348.29545649221126 389.263968252062 355.68182033349666 391.0920933027801C363.06818417478206 392.9202183534983 366.0227297112962 416.19834399930915 373.4090935525816 416.0875485416899C380.795457393867 415.9767530840706 383.7500029303812 391.0034569366847 391.13636677166653 390.56027510620754C398.52273061295193 390.11709327573044 401.4772761494661 412.8523211792069 408.8636399907515 413.9602757553997C416.2500038320369 415.06823033159253 419.20454936855106 396.04465025836197 426.59091320983646 395.87845707193304C433.97727705112186 395.7122638855041 436.931822587636 414.93527578244937 444.3181864289214 413.1625484605409C451.7045502702068 411.3898211386324 454.659095806721 387.1477750115337 462.0454596480064 387.3693659267723C469.4318234892918 387.5909568420108 472.38636902580595 413.45061665035104 479.77273286709135 414.226184853686C487.1590967083767 415.00175305702095 493.80682416553356 395.91169570921886 497.50000608617626 391.0920933027801 " transform="rotate(57.5, 400, 400)"></path><path d="M312.2500006086176 406.1026605247308C315.573864337196 401.81487631486465 321.55681904863724 385.42158040551584 328.2045465057941 385.5212963173732C334.8522739629509 385.62101222923053 337.5113649458137 405.2351320915718 344.15909240297054 406.5812969016461C350.8068198601274 407.92746171172035 353.4659108429901 390.33757486008335 360.113638300147 391.9828874057296C366.76136575730385 393.62819995137596 369.4204567401666 414.5785130326058 376.0681841973235 414.4787971207484C382.7159116544803 414.3790812088911 385.3750026373431 391.9031146762438 392.02273009449993 391.50425102881434C398.67045755165674 391.10538738138496 401.3295485345195 411.56709249451376 407.9772759916764 412.56425161308727C414.62500344883324 413.56141073166077 417.28409443169596 396.44018866575334 423.9318218888528 396.2906147979673C430.5795493460097 396.14104093018125 433.2386403288724 413.441751637432 439.88636778602927 411.84629704771436C446.53409524318613 410.25084245799667 449.19318622604885 388.4330009436079 455.8409136832057 388.6324327673226C462.48864114036263 388.8318645910373 465.14773212322535 412.10555841854347 471.79545958038216 412.80356980154494C478.443187037539 413.5015811845464 484.42614174898017 396.3205295715245 487.7500054775586 391.9828874057296 " transform="rotate(51.75, 400, 400)"></path><path d="M322.0000005409934 405.42458713309406C324.9545460775076 401.6132233909908 330.2727280432331 387.041404804903 336.1818191162614 387.13004117099837C342.09091018928973 387.2186775370938 344.45454661850107 404.65345074806385 350.36363769152933 405.8500416903521C356.27272876455766 407.04663263264035 358.63636519376905 391.4111776534074 364.5454562667973 392.8736776939819C370.45454733982564 394.33617773455643 372.818183769037 412.95867825120513 378.7272748420653 412.87004188510974C384.6363659150936 412.7814055190143 387.0000023443049 392.8027686011056 392.9090934173332 392.44822313672387C398.81818449036155 392.09367767234215 401.1818209195729 410.28185999512334 407.0909119926012 411.1682236560776C413.0000030656295 412.0545873170318 415.36363949484087 396.8357232584474 421.2727305678692 396.7027687093043C427.1818216408975 396.5698141601611 429.5454580701088 411.9482236777173 435.4545491431371 410.5300418201905C441.36364021616544 409.11185996266374 443.7272766453768 389.71822306098477 449.6363677184051 389.89549579317566C455.5454587914335 390.0727685253665 457.90909522064476 410.76049637203863 463.8181862936731 411.3809509347066C469.7272773667014 412.00140549737455 475.04545933242684 396.7293596191329 478.000004868941 392.8736776939819 " transform="rotate(46, 400, 400)"></path><path d="M331.75000047336925 404.7465137414573C334.33522781781915 401.4115704671169 338.98863703782894 388.66122920429007 344.1590917267287 388.7387860246236C349.3295464156285 388.8163428449571 351.3977282911884 404.0717694045559 356.5681829800882 405.1187864790581C361.73863766898796 406.1658035535603 363.8068195445479 392.48478044673146 368.9772742334477 393.7644679822342C374.1477289223474 395.04415551773684 376.2159107979073 411.3388434698045 381.3863654868071 411.261286649471C386.5568201757069 411.1837298291375 388.62500205126685 393.7024225259674 393.7954567401666 393.3921952446334C398.96591142906635 393.0819679632994 401.03409330462625 408.9966274957329 406.20454799352603 409.7721956990679C411.3750026824258 410.54776390240283 413.4431845579858 397.2312578511415 418.61363924688555 397.1149226206412C423.7840939357853 396.998587390141 425.8522758113452 410.45469571800265 431.02273050024496 409.2137865926667C436.19318518914474 407.97287746733076 438.2613670647047 391.0034451783617 443.4318217536045 391.15855881902866C448.60227644250426 391.3136724596957 450.67045831806416 409.4154343255338 455.8409130069639 409.95833206786824C461.01136769586367 410.50122981020274 465.6647769158735 397.13818966674125 468.2500042603234 393.7644679822342 " transform="rotate(40.25, 400, 400)"></path><path d="M341.4999965910478 404.0684422571692C343.71590574343344 401.2099194505917 347.7045422177275 390.28105551102584 352.13636052249876 390.3475327855974C356.56817882727 390.414010060169 358.3409061491785 403.49008996839655 362.77272445394976 404.3875331751127C367.204542758721 405.28497638182887 368.9772700806295 393.5583851474042 373.40908838540076 394.6552601778351C377.840906690172 395.75213520826594 379.61363401208047 409.7190105957525 384.0454523168517 409.65253332118095C388.47727062162295 409.5860560466094 390.2499979435314 394.6020783581778 394.68181624830265 394.33616925989156C399.1136345530739 394.07026016160523 400.8863618749824 407.71139690369114 405.31818017975365 408.37616964940685C409.7499984845249 409.0409423951225 411.5227258064334 397.6267943511842 415.95454411120465 397.52707843932683C420.38636241597584 397.4273625274695 422.1590897378843 408.9611696656366 426.5909080426556 407.8975332724915C431.0227263474268 406.8338968793464 432.7954536693353 392.28866920308724 437.22727197410654 392.42162375223035C441.6590902788778 392.5545783013735 443.4318176007863 408.0703741863776 447.86363590555754 408.53571510837855C452.2954542103288 409.0010560303796 456.28409068462287 397.54702162169826 458.4999998370085 394.6552601778351 " transform="rotate(34.5, 400, 400)"></path><path d="M351.24999652342365 403.39036505083516C353.096587483745 401.0082627120206 356.4204512123234 391.9008760957157 360.11363313296613 391.95627382452534C363.80681505360883 392.011671553335 365.2840878218659 402.90840481019126 368.9772697425086 403.65627414912143C372.6704516631513 404.40414348805155 374.1477244314084 394.631984126031 377.8409063520511 395.54604665139004C381.5340882726938 396.46010917674914 383.0113610409509 408.0991719996546 386.7045429615936 408.04377427084495C390.3977248822363 407.9883765420353 391.87499765049336 395.5017284683423 395.568179571136 395.28013755310377C399.2613614917787 395.0585466378652 400.7386342600358 406.42616058960346 404.4318161806785 406.98013787769986C408.1249981013212 407.53411516579627 409.60227086957826 398.022325129181 413.29545279022096 397.93922853596655C416.98863471086366 397.8561319427521 418.46590747912074 407.4676378912247 422.15908939976345 406.5812742302704C425.85227132040615 405.6949105693162 427.3295440886632 393.57388750576683 431.0227260093059 393.68468296338614C434.7159079299486 393.79547842100544 436.1931806982057 406.7253083251755 439.8863626188484 407.11309242684297C443.57954453949105 407.50087652851045 446.9034082680695 397.95584785460943 448.74999922839083 395.54604665139004 " transform="rotate(28.75, 400, 400)"></path><path d="M360.9999964557995 402.71229356654703C362.47726922405656 400.8066116954954 365.1363602069193 393.5207024024515 368.09090574343344 393.5650205854992C371.0454512799476 393.6093387685469 372.22726949455324 402.3267253740319 375.1818150310674 402.92502084517605C378.13636056758156 403.5233163163202 379.31817878218726 395.7055888267037 382.2727243187014 396.43683884699095C385.2272698552156 397.1680888672782 386.4090880698212 406.47933912560256 389.3636336063354 406.43502094255484C392.31817914284954 406.3907027595071 393.4999973574552 396.40138430055276 396.45454289396935 396.22411156836193C399.4090884304835 396.0468388361711 400.59090664508915 405.14092999756167 403.5454521816033 405.5841118280388C406.49999771811747 406.02729365851593 407.68181593272317 398.4178616292237 410.63636146923733 398.3513843546521C413.5909070057515 398.28490708008053 414.77272522035713 405.9741118388587 417.7272707568713 405.26502091009525C420.68181629338545 404.5559299813319 421.86363450799115 394.8591115304924 424.8181800445053 394.9477478965878C427.7727255810195 395.0363842626832 428.9545437956251 405.38024818601934 431.9090893321393 405.6904754673533C434.86363486865343 406.0007027486873 437.52272585151616 398.36467980956644 438.99999861977324 396.43683884699095 " transform="rotate(23, 400, 400)"></path><path d="M370.75000020287257 402.03421826756164C371.8579547790654 400.60495686427294 373.8522730162124 395.14052489449 376.068182168598 395.17376353177576C378.28409132098363 395.2070021690615 379.1704549819379 401.7450421231753 381.3863641343235 402.1937637265334C383.60227328670913 402.6424853298915 384.4886369476634 396.7791897126791 386.704546100049 397.3276272278946C388.92045525243464 397.87606474311 389.80681891338884 404.8595024368533 392.02272806577446 404.8262637995675C394.2386372181601 404.7930251622817 395.12500087911434 397.30103631806594 397.34091003149996 397.16808176892283C399.5568191838856 397.03512721977967 400.44318284483984 403.8556955908226 402.65909199722546 404.1880819636805C404.8750011496111 404.52046833653833 405.76136481056534 398.8133943145691 407.97727396295096 398.76353635864047C410.1931831153365 398.71367840271176 411.0795467762908 404.48058197179535 413.29545592867646 403.9487637752228C415.511365081062 403.41694557865026 416.3977287420163 396.14433174052067 418.6136378944019 396.21080901509225C420.8295470467875 396.2772862896638 421.7159107077418 404.0351842321659 423.9318198601274 404.2678546931663C426.147729012513 404.50052515416684 428.1420472496601 398.7735079498262 429.2500018258529 397.3276272278946 " transform="rotate(17.25, 400, 400)"></path><path d="M380.50000013524834 401.3561467832735C381.2386365193769 400.4033058477477 382.5681820108083 396.7603512012257 384.0454547790654 396.7825102927496C385.52272754732246 396.80466938427344 386.1136366546253 401.16336268701593 387.59090942288236 401.462510422588C389.0681821911394 401.76165815816006 389.65909129844226 397.85279441335183 391.13636406669934 398.21841942349545C392.6136368349564 398.5840444336391 393.20454594225924 403.2396695628013 394.6818187105163 403.2175104712774C396.1590914787734 403.19535137975356 396.7500005860762 398.2006921502764 398.2272733543333 398.11205578418094C399.7045461225904 398.02341941808555 400.2954552298932 402.57046499878084 401.7727279981503 402.7920559140194C403.25000076640737 403.01364682925794 403.8409098737102 399.20893081461185 405.31818264196727 399.1756921773261C406.79545541022435 399.14245354004026 407.3863645175272 402.98705591942934 408.8636372857843 402.6325104550476C410.3409100540414 402.2779649906659 410.9318191613442 397.4295557652462 412.4090919296013 397.4738739482939C413.88636469785837 397.5181921313416 414.4772738051612 402.6901240930097 415.95454657341827 402.84523773367664C417.43181934167535 403.00035137434367 418.7613648331067 399.18233990478325 419.50000121723525 398.21841942349545 " transform="rotate(11.5, 400, 400)"></path><path d="M390.25000006762417 400.67807339163676C390.61931825968844 400.20165292387384 391.28409100540415 398.38017560061286 392.0227273895327 398.3912551463748C392.76136377366123 398.4023346921367 393.0568183273126 400.58168134350797 393.79545471144115 400.731255211294C394.5340910955697 400.88082907908006 394.82954564922113 398.9263972066759 395.5681820333497 399.1092097117477C396.3068184174782 399.29202221681953 396.60227297112965 401.61983478140064 397.3409093552582 401.60875523563874C398.07954573938673 401.5976756898768 398.3750002930381 399.1003460751382 399.11363667716665 399.05602789209047C399.8522730612952 399.01170970904275 400.14772761494663 401.2852324993904 400.8863639990751 401.3960279570097C401.62500038320366 401.50682341462897 401.9204549368551 399.60446540730595 402.65909132098363 399.587846088663C403.3977277051122 399.57122677002013 403.6931822587636 401.49352795971464 404.43181864289215 401.3162552275238C405.1704550270207 401.138982495333 405.46590958067213 398.7147778826231 406.2045459648007 398.73693697414694C406.9431823489292 398.7590960656708 407.2386369025806 401.34506204650484 407.97727328670913 401.4226188668383C408.7159096708377 401.5001756871718 409.3806824165533 399.5911699523916 409.7500006086176 399.1092097117477 " transform="rotate(5.75, 400, 400)"></path></g></svg>