<svg width="500" height="500" viewBox="0 0 500 500" fill="none" xmlns="http://www.w3.org/2000/svg">
<path d="M434.977 249.996C434.977 352.154 352.152 434.979 249.994 434.979C147.836 434.979 70.8032 352.154 70.8032 249.996C70.8032 147.838 147.836 65.0256 249.994 65.0256C352.152 65.0256 434.977 147.838 434.977 249.996Z" fill="#DFB78F"/>
<path d="M388.735 249.996C388.735 352.154 354.969 434.979 250.004 434.979C147.846 434.979 65.021 352.154 65.021 249.996C65.021 147.838 147.846 65.0256 250.004 65.0256C334.739 65.0256 388.735 147.838 388.735 249.996Z" fill="white"/>
<path d="M394.518 249.996C394.518 352.154 354.967 434.979 249.995 434.979C150.309 434.979 93.9243 352.154 93.9243 249.996C93.9243 147.838 168.551 65.0256 249.995 65.0256C334.737 65.0256 394.518 147.838 394.518 249.996Z" fill="#F8E9CA"/>
<path d="M249.997 438.736C228.681 438.736 207.761 435.209 187.821 428.261C185.857 427.571 184.824 425.43 185.503 423.472C186.181 421.502 188.316 420.47 190.286 421.16C209.442 427.831 229.525 431.222 249.997 431.222C349.919 431.222 431.216 349.919 431.216 249.996C431.216 213.795 420.576 178.867 400.453 148.959C399.291 147.237 399.751 144.901 401.473 143.739C403.195 142.577 405.525 143.032 406.687 144.754C427.648 175.907 438.73 212.297 438.73 249.996C438.73 354.071 354.065 438.736 249.997 438.736Z" fill="#401048"/>
<path d="M71.058 206.742C70.7395 206.742 70.421 206.701 70.0966 206.618C68.0972 206.093 66.8941 204.041 67.419 202.03C89.1351 119.152 164.216 61.2639 249.995 61.2639C304.604 61.2639 356.5 84.9028 392.383 126.112C393.745 127.68 393.58 130.051 392.012 131.414C390.454 132.776 388.072 132.605 386.715 131.048C352.259 91.479 302.428 68.7838 249.995 68.7838C167.631 68.7838 95.5403 124.36 74.6911 203.935C74.2488 205.628 72.7271 206.742 71.058 206.742Z" fill="#401048"/>
<path d="M157.195 413.809C156.558 413.809 155.909 413.65 155.313 413.302C97.3015 379.595 61.2651 317.024 61.2651 250.006C61.2651 241.501 61.8372 232.949 62.9578 224.58C63.2409 222.522 65.1342 221.1 67.1867 221.354C69.2391 221.631 70.69 223.524 70.4128 225.583C69.3276 233.621 68.7791 241.837 68.7791 250.006C68.7791 314.352 103.382 374.429 159.088 406.796C160.881 407.84 161.495 410.152 160.445 411.939C159.749 413.143 158.492 413.809 157.195 413.809Z" fill="#401048"/>
<path d="M434.836 326.269C436.866 273.122 395.423 228.387 342.269 226.356C289.128 224.326 244.393 265.769 242.363 318.917C240.332 372.065 281.775 416.8 334.917 418.83C388.071 420.86 432.806 379.417 434.836 326.269Z" fill="#C5C7C9"/>
<path d="M398.751 324.891C400.781 271.743 367.286 227.312 342.271 226.357C289.129 224.327 244.394 265.769 242.364 318.917C240.334 372.065 281.777 416.8 334.918 418.83C359.933 419.785 396.72 378.039 398.751 324.891Z" fill="white"/>
<path d="M404.764 325.121C406.794 271.973 367.29 227.312 342.275 226.357C306.392 224.986 268.45 266.688 266.42 319.836C264.39 372.984 303.059 417.613 334.923 418.83C359.938 419.785 402.734 378.268 404.764 325.121Z" fill="#E0E6EA"/>
<path d="M334.779 422.736C279.557 420.626 236.343 373.986 238.452 318.77C240.561 263.554 287.208 220.334 342.43 222.444C397.652 224.553 440.853 271.205 438.744 326.421C438.475 333.467 437.469 340.49 435.753 347.277C435.225 349.365 433.104 350.655 430.998 350.114C428.904 349.585 427.64 347.453 428.168 345.359C429.753 339.101 430.677 332.622 430.925 326.123C432.87 275.215 393.038 232.219 342.131 230.275C291.223 228.33 248.215 268.161 246.271 319.069C244.326 369.976 284.17 412.972 335.078 414.917C369.857 416.246 402.075 398.221 419.165 367.872C420.233 365.977 422.618 365.312 424.495 366.374C426.379 367.435 427.043 369.821 425.982 371.71C407.447 404.633 372.498 424.177 334.779 422.736Z" fill="#401048"/>
<path d="M385.128 337.164C375.999 333.841 366.541 331.556 356.959 330.12L353.613 417.71C359.686 416.737 365.577 415.198 371.236 413.159C381.905 409.307 391.68 403.596 400.251 396.437L401.58 361.64C401.995 350.771 395.348 340.886 385.128 337.164Z" fill="#C54444"/>
<path d="M341.18 328.547L337.154 328.393C321.676 327.802 306.194 329.576 291.25 333.652C290.021 333.986 288.848 334.427 287.717 334.931L285.133 402.568C289.555 405.546 294.223 408.189 299.148 410.405C310.115 415.335 322.163 418.34 334.922 418.827C341.299 419.071 347.546 418.677 353.612 417.71L356.958 330.12C351.733 329.343 346.476 328.749 341.18 328.547Z" fill="#E07171"/>
<path d="M272.825 356.845L271.5 391.52C275.696 395.602 280.257 399.285 285.128 402.563L287.712 334.932C279.072 338.75 273.193 347.192 272.825 356.845Z" fill="white"/>
<path d="M334.78 422.737C321.91 422.245 309.381 419.296 297.549 413.983L297.55 413.976C286.946 409.201 277.254 402.593 268.762 394.322C267.974 393.548 267.542 392.474 267.585 391.363L268.909 356.695C269.394 343.991 277.955 333.224 290.215 329.882C305.562 325.693 321.403 323.876 337.304 324.483L341.33 324.637C356.765 325.227 371.949 328.204 386.467 333.485C398.324 337.804 405.971 349.183 405.49 361.795L404.161 396.581C404.118 397.691 403.612 398.729 402.761 399.44C393.663 407.04 383.508 412.89 372.57 416.842C372.564 416.848 372.564 416.848 372.552 416.848C360.343 421.243 347.637 423.228 334.78 422.737ZM303.161 407.873C323.567 416.378 346.427 417.263 367.429 410.328L368.763 375.413C368.845 373.247 370.667 371.565 372.828 371.647C374.988 371.73 376.67 373.546 376.587 375.712L375.381 407.294C382.869 404.028 389.916 399.755 396.409 394.521L397.671 361.497C398.022 352.291 392.445 343.989 383.789 340.844C370.035 335.838 355.65 333.014 341.031 332.456L337.005 332.302C321.902 331.725 306.852 333.449 292.275 337.428C283.331 339.871 277.081 347.732 276.728 356.993L275.471 389.901C281.546 395.615 288.252 400.413 295.469 404.241L296.676 372.66C296.758 370.493 298.568 368.811 300.728 368.893C302.889 368.976 304.577 370.792 304.494 372.958L303.161 407.873Z" fill="#401048"/>
<path d="M337.557 349.959C335.396 349.876 333.714 348.067 333.796 345.9L334.469 328.293C334.551 326.139 336.368 324.444 338.528 324.527C340.688 324.609 342.37 326.437 342.288 328.591L341.615 346.199C341.532 348.365 339.717 350.041 337.557 349.959Z" fill="#401048"/>
<path d="M341.129 256.432C327.32 255.905 315.643 267.794 315.063 282.99C314.483 298.185 325.218 310.943 339.027 311.47C352.835 311.998 364.513 300.096 365.093 284.901C365.674 269.705 354.938 256.96 341.129 256.432Z" fill="white"/>
<path d="M349.525 258.714C340.393 258.365 332.548 269.522 332.009 283.643C331.469 297.759 338.44 309.487 347.572 309.836C356.704 310.185 364.549 299.022 365.088 284.907C365.627 270.785 358.657 259.063 349.525 258.714Z" fill="#F8E9CA"/>
<path d="M338.88 315.381C322.929 314.772 310.488 300.173 311.15 282.848C311.812 265.516 325.33 251.915 341.281 252.524C357.225 253.133 369.661 267.726 368.999 285.057C368.337 302.383 354.824 315.99 338.88 315.381ZM340.982 260.349C329.346 259.905 319.466 270.136 318.969 283.146C318.471 296.163 327.543 307.106 339.179 307.55C350.815 307.995 360.683 297.776 361.18 284.759C361.677 271.748 352.618 260.794 340.982 260.349Z" fill="#401048"/>
<path d="M246.402 315.861C248.353 264.776 208.513 221.777 157.428 219.826C106.343 217.874 63.3508 257.709 61.3994 308.794C59.4479 359.878 99.2763 402.877 150.361 404.828C201.446 406.779 244.45 366.945 246.402 315.861Z" fill="#C5C7C9"/>
<path d="M211.716 314.536C213.667 263.451 181.472 220.744 157.428 219.826C106.343 217.874 63.3508 257.709 61.3994 308.794C59.4479 359.878 99.2763 402.877 150.361 404.828C174.405 405.746 209.764 365.62 211.716 314.536Z" fill="white"/>
<path d="M217.497 314.756C219.448 263.672 181.478 220.744 157.434 219.826C122.943 218.508 86.4746 258.592 84.5231 309.677C82.5717 360.762 119.74 403.658 150.367 404.828C174.411 405.747 215.545 365.841 217.497 314.756Z" fill="#E0E6EA"/>
<path d="M150.222 408.582C97.1439 406.555 55.6191 361.725 57.6465 308.653C59.6738 255.58 104.498 214.037 157.577 216.065C173.61 216.677 189.33 221.313 203.038 229.451C204.822 230.518 205.408 232.826 204.347 234.605C203.286 236.396 200.978 236.981 199.193 235.915C186.56 228.414 172.072 224.156 157.289 223.592C108.357 221.723 67.0309 260.008 65.1617 308.94C63.2925 357.871 101.578 399.198 150.51 401.067C199.441 402.936 240.774 364.651 242.643 315.719C243.254 299.727 239.546 283.884 231.94 269.911C230.94 268.089 231.612 265.805 233.44 264.811C235.257 263.805 237.547 264.472 238.54 266.306C246.799 281.461 250.815 298.652 250.152 316.006C248.125 369.079 203.301 410.61 150.222 408.582Z" fill="#401048"/>
<path d="M90.6786 345.25L89.4055 378.579C93.4382 382.502 97.8222 386.042 102.505 389.193L104.988 324.187C96.6835 327.857 91.0331 335.971 90.6786 345.25Z" fill="white"/>
<path d="M198.623 326.333C189.848 323.138 180.758 320.942 171.548 319.562L168.332 403.752C174.169 402.817 179.831 401.338 185.27 399.377C195.525 395.675 204.921 390.186 213.159 383.305L214.437 349.858C214.836 339.411 208.447 329.91 198.623 326.333Z" fill="#F0CE34"/>
<path d="M156.383 318.049L152.507 317.901C137.63 317.333 122.755 319.039 108.386 322.956C107.21 323.278 106.083 323.701 104.989 324.185L102.506 389.198C106.762 392.06 111.243 394.6 115.971 396.73C126.518 401.469 138.104 404.357 150.368 404.826C156.497 405.06 162.496 404.681 168.327 403.752L171.543 319.562C166.52 318.815 161.474 318.244 156.383 318.049Z" fill="#F7E27D"/>
<path d="M150.218 408.583C137.859 408.111 125.828 405.277 114.456 400.169C114.45 400.169 114.438 400.169 114.432 400.163C104.24 395.573 94.936 389.222 86.7742 381.271C86.011 380.527 85.6014 379.496 85.6422 378.428L86.9151 345.105C87.3816 332.894 95.6103 322.545 107.394 319.333C122.146 315.306 137.371 313.56 152.655 314.144L156.525 314.292C171.361 314.859 185.955 317.72 199.91 322.796C211.313 326.947 218.657 337.885 218.194 350.007L216.917 383.443C216.876 384.51 216.389 385.508 215.571 386.191C206.827 393.496 197.065 399.119 186.553 402.918L186.541 402.923C174.812 407.148 162.588 409.056 150.218 408.583ZM119.837 394.296C139.457 402.483 161.436 403.311 181.611 396.656L182.893 363.097C182.972 361.015 184.724 359.398 186.8 359.477C188.877 359.556 190.494 361.302 190.414 363.384L189.254 393.74C196.452 390.6 203.225 386.494 209.466 381.462L210.679 349.72C211.017 340.872 205.656 332.893 197.342 329.87C184.116 325.058 170.289 322.344 156.238 321.807L152.368 321.659C137.851 321.105 123.385 322.761 109.374 326.586C100.778 328.934 94.7704 336.49 94.4304 345.392L93.2221 377.022C99.0616 382.515 105.508 387.126 112.444 390.806L113.604 360.45C113.684 358.368 115.423 356.751 117.5 356.83C119.576 356.909 121.199 358.655 121.119 360.737L119.837 394.296Z" fill="#401048"/>
<path d="M151.106 385.456C149.029 385.377 147.413 383.631 147.492 381.555L149.927 317.805C150.006 315.729 151.752 314.106 153.828 314.185C155.905 314.265 157.522 316.016 157.442 318.092L155.007 381.842C154.928 383.918 153.182 385.535 151.106 385.456Z" fill="#401048"/>
<path d="M156.331 248.734C143.058 248.227 131.835 259.655 131.277 274.261C130.719 288.866 141.037 301.129 154.31 301.636C167.583 302.143 178.807 290.703 179.365 276.098C179.923 261.492 169.603 249.241 156.331 248.734Z" fill="white"/>
<path d="M164.402 250.927C155.624 250.592 148.084 261.315 147.566 274.889C147.048 288.456 153.747 299.73 162.525 300.065C171.297 300.4 178.843 289.671 179.361 276.103C179.88 262.53 173.174 251.262 164.402 250.927Z" fill="#F8E9CA"/>
<path d="M153.796 305.479C138.47 304.893 126.518 290.861 127.154 274.208C127.79 257.55 140.778 244.476 156.104 245.062C171.435 245.647 183.394 259.674 182.757 276.332C182.121 292.985 169.127 306.064 153.796 305.479ZM155.816 252.583C144.632 252.156 135.147 261.99 134.669 274.496C134.191 287.007 142.899 297.524 154.083 297.952C165.268 298.379 174.764 288.557 175.242 276.045C175.72 263.54 167.001 253.01 155.816 252.583Z" fill="#401048"/>
<path d="M356.129 161.511C358.259 105.735 314.76 58.7871 258.983 56.6564C203.207 54.5258 156.266 98.0188 154.135 153.795C152.004 209.572 195.491 256.519 251.267 258.65C307.044 260.78 353.998 217.288 356.129 161.511Z" fill="#C5C7C9"/>
<path d="M318.258 160.065C320.389 104.288 285.237 57.6593 258.985 56.6565C203.208 54.5258 156.267 98.0189 154.136 153.795C152.006 209.572 195.492 256.519 251.269 258.65C277.521 259.653 316.128 215.841 318.258 160.065Z" fill="white"/>
<path d="M324.57 160.306C326.701 104.529 285.243 57.6596 258.991 56.6567C221.332 55.2182 181.515 98.9833 179.384 154.76C177.253 210.536 217.835 257.373 251.275 258.65C277.527 259.653 322.44 216.082 324.57 160.306Z" fill="#E0E6EA"/>
<path d="M251.116 262.753C193.162 260.539 147.824 211.586 150.037 153.639C152.251 95.6918 201.192 50.3401 259.145 52.5539C317.099 54.7677 362.437 103.721 360.223 161.668C358.01 219.615 309.069 264.967 251.116 262.753ZM258.832 60.7658C205.406 58.725 160.284 100.527 158.243 153.952C156.202 207.378 198.004 252.5 251.429 254.541C304.855 256.582 349.977 214.78 352.018 161.354C354.059 107.929 312.257 62.8066 258.832 60.7658Z" fill="#401048"/>
<path d="M303.962 172.939C294.381 169.457 284.456 167.059 274.399 165.559L270.889 257.468C277.262 256.447 283.444 254.832 289.383 252.692C300.58 248.656 310.839 242.656 319.833 235.15L321.228 198.631C321.664 187.225 314.688 176.844 303.962 172.939Z" fill="#79C3FB"/>
<path d="M257.844 163.895L253.612 163.733C237.362 163.113 221.12 164.982 205.438 169.265C204.148 169.61 202.924 170.072 201.73 170.601L199.018 241.59C203.665 244.709 208.565 247.476 213.733 249.802C225.242 254.976 237.892 258.143 251.276 258.654C257.968 258.91 264.518 258.489 270.884 257.475L274.396 165.559C268.912 164.737 263.402 164.107 257.844 163.895Z" fill="#9FE0FC"/>
<path d="M186.105 193.595L184.715 229.991C189.118 234.274 193.905 238.134 199.017 241.58L201.728 170.603C192.654 174.617 186.492 183.463 186.105 193.595Z" fill="white"/>
<path d="M251.112 262.751C237.625 262.236 224.488 259.148 212.059 253.565C212.046 253.564 212.046 253.564 212.04 253.557C200.912 248.546 190.753 241.611 181.842 232.931C181.008 232.119 180.562 230.986 180.606 229.826L181.996 193.443C182.505 180.117 191.49 168.805 204.35 165.297C220.462 160.907 237.086 159.001 253.767 159.638L257.992 159.8C274.191 160.418 290.126 163.543 305.362 169.085C317.805 173.611 325.825 185.553 325.319 198.795C325.233 201.056 323.327 202.821 321.06 202.735C318.799 202.648 317.034 200.743 317.12 198.482C317.489 188.821 311.636 180.109 302.551 176.808C288.123 171.555 273.027 168.591 257.679 168.005L253.454 167.844C237.61 167.238 221.815 169.047 206.517 173.223C197.131 175.78 190.572 184.037 190.201 193.756L188.882 228.291C195.251 234.282 202.289 239.324 209.863 243.341L211.129 210.197C211.216 207.924 213.122 206.158 215.383 206.245C217.65 206.331 219.422 208.237 219.335 210.511L217.935 247.152C239.363 256.085 263.329 257 285.389 249.729L286.788 213.087C286.875 210.814 288.781 209.048 291.048 209.135C293.315 209.222 295.081 211.127 294.994 213.401L293.728 246.545C302.13 242.886 309.999 238.001 317.194 232C318.933 230.544 321.524 230.772 322.973 232.511C324.429 234.25 324.2 236.853 322.462 238.303C312.908 246.278 302.256 252.418 290.778 256.565C290.771 256.571 290.765 256.571 290.758 256.571C277.94 261.19 264.599 263.267 251.112 262.751Z" fill="#401048"/>
<path d="M251.791 244.356C250.529 244.308 249.402 243.761 248.553 242.839C247.647 241.921 247.242 240.705 247.29 239.449C247.314 238.812 247.409 238.183 247.682 237.626C247.955 237.062 248.348 236.574 248.809 236.147C249.206 235.724 249.793 235.365 250.374 235.201C251.527 234.735 252.854 234.786 253.968 235.338C254.534 235.546 255.073 235.948 255.443 236.4C256.349 237.325 256.819 238.543 256.77 239.812C256.722 241.068 256.161 242.246 255.187 243.092C254.264 243.947 253.118 244.406 251.791 244.356Z" fill="#401048"/>
<path d="M247.959 220.504C248.06 217.85 250.285 215.852 252.874 215.951C255.521 216.052 257.528 218.212 257.427 220.866C257.328 223.455 255.159 225.526 252.512 225.425C249.923 225.326 247.86 223.093 247.959 220.504ZM248.682 201.568C248.784 198.921 251.008 196.923 253.597 197.022C256.244 197.123 258.251 199.283 258.15 201.93C258.052 204.513 255.883 206.584 253.236 206.483C250.646 206.384 248.584 204.151 248.682 201.568Z" fill="#401048"/>
<path d="M254.023 187.549C252.761 187.5 251.576 186.952 250.663 186.027C250.235 185.572 249.945 185.058 249.709 184.481C249.48 183.898 249.446 183.265 249.47 182.64C249.494 182.003 249.576 181.374 249.849 180.816C250.129 180.253 250.457 179.762 250.919 179.335C251.38 178.914 251.955 178.555 252.535 178.391C253.688 177.925 255.015 177.976 256.129 178.528C256.695 178.737 257.247 179.138 257.675 179.593C258.038 180.052 258.392 180.569 258.621 181.152C258.793 181.726 258.898 182.362 258.873 182.999C258.85 183.624 258.697 184.25 258.482 184.816C258.209 185.373 257.874 185.864 257.419 186.285C256.432 187.137 255.221 187.594 254.023 187.549Z" fill="#401048"/>
<path d="M257.783 88.2174C243.291 87.6638 231.037 100.141 230.428 116.088C229.818 132.042 241.085 145.424 255.576 145.978C270.068 146.531 282.323 134.048 282.932 118.094C283.541 102.147 272.274 88.771 257.783 88.2174Z" fill="white"/>
<path d="M266.599 90.6104C257.015 90.2443 248.783 101.953 248.216 116.773C247.65 131.593 254.966 143.895 264.549 144.262C274.133 144.628 282.366 132.919 282.932 118.099C283.498 103.279 276.183 90.9765 266.599 90.6104Z" fill="#F8E9CA"/>
<path d="M255.423 150.082C238.684 149.442 225.64 134.128 226.335 115.94C227.03 97.7511 241.204 83.4767 257.943 84.1161C274.683 84.7555 287.727 100.07 287.032 118.258C286.337 136.447 272.163 150.721 255.423 150.082ZM257.63 92.328C245.418 91.8615 235.055 102.599 234.534 116.253C234.012 129.914 243.526 141.397 255.737 141.863C267.949 142.33 278.311 131.606 278.833 117.945C279.355 104.291 269.841 92.7945 257.63 92.328Z" fill="#401048"/>
</svg>
